<svg width="174" height="42" xmlns="http://www.w3.org/2000/svg" xmlns:xlink="http://www.w3.org/1999/xlink" xml:space="preserve" overflow="hidden"><g transform="translate(-696 -660)"><path d="M69.4819 13.0562 69.4819 10.9985 74.7952 10.9985 74.7952 15.8613C74.2799 16.3595 73.5326 16.7997 72.5532 17.1819 71.5738 17.5607 70.5807 17.7518 69.5775 17.7518 68.3012 17.7518 67.1887 17.4822 66.2401 16.9499 65.2914 16.4175 64.5782 15.6497 64.1004 14.6533 63.6227 13.6568 63.3838 12.5751 63.3838 11.4012 63.3838 10.1317 63.65 8.99876 64.1823 8.01255 64.7147 7.02293 65.4961 6.26535 66.5233 5.73983 67.3047 5.33374 68.2807 5.1324 69.4444 5.1324 70.9595 5.1324 72.1437 5.44976 72.9968 6.08449 73.8499 6.71921 74.3959 7.59964 74.6416 8.71894L72.1949 9.17621C72.0242 8.57561 71.7001 8.10469 71.2257 7.75661 70.7514 7.40854 70.1576 7.2345 69.4478 7.2345 68.3695 7.2345 67.5163 7.57575 66.8782 8.25825 66.2435 8.94075 65.9261 9.95426 65.9261 11.2988 65.9261 12.7491 66.2469 13.8343 66.8918 14.5577 67.5368 15.2812 68.3797 15.6429 69.4239 15.6429 69.9392 15.6429 70.4579 15.5405 70.9766 15.3392 71.4953 15.1379 71.9423 14.8922 72.3143 14.6021L72.3143 13.0528 69.4922 13.0528Z" fill="#1D743B" transform="matrix(1 0 0 1.00904 696 660.014)"/><path d="M79.2895 17.5437 76.9485 17.5437 76.9485 8.70188 79.1222 8.70188 79.1222 9.95768C79.4942 9.3639 79.8286 8.97146 80.1255 8.78378 80.4224 8.59609 80.7602 8.50054 81.1356 8.50054 81.668 8.50054 82.1833 8.64728 82.6747 8.94075L81.9512 10.9814C81.5554 10.7255 81.1902 10.5992 80.8524 10.5992 80.5145 10.5992 80.2484 10.688 80.0197 10.8688 79.7911 11.0497 79.6136 11.3739 79.484 11.8482 79.3543 12.3191 79.2895 13.3088 79.2895 14.8137L79.2895 17.5437Z" fill="#1D743B" transform="matrix(1 0 0 1.00904 696 660.014)"/><path d="M88.8069 14.7318 91.1377 15.1242C90.8374 15.9773 90.363 16.6291 89.7181 17.0762 89.0697 17.5232 88.2609 17.745 87.2918 17.745 85.7527 17.745 84.6164 17.2434 83.8793 16.2367 83.2957 15.4313 83.0057 14.4178 83.0057 13.1893 83.0057 11.7254 83.3879 10.5753 84.1557 9.7461 84.9235 8.91686 85.8892 8.50054 87.0597 8.50054 88.3735 8.50054 89.4143 8.93393 90.1719 9.80411 90.9329 10.6743 91.2946 12.0052 91.2639 13.7967L85.4012 13.7967C85.4183 14.4895 85.606 15.0287 85.9677 15.4177 86.3294 15.8033 86.7765 15.9978 87.3157 15.9978 87.6808 15.9978 87.9913 15.8988 88.2404 15.6975 88.4896 15.4962 88.6772 15.1754 88.8069 14.7318ZM88.94 12.3669C88.9229 11.6912 88.7489 11.1759 88.4145 10.821 88.08 10.4696 87.6774 10.2921 87.1996 10.2921 86.6878 10.2921 86.268 10.4764 85.9336 10.8483 85.5992 11.2203 85.4354 11.7254 85.4422 12.3635L88.94 12.3635Z" fill="#1D743B" transform="matrix(1 0 0 1.00904 696 660.014)"/><path d="M98.2868 14.7318 100.618 15.1242C100.317 15.9773 99.8429 16.6291 99.198 17.0762 98.5496 17.5232 97.7408 17.745 96.7717 17.745 95.2327 17.745 94.0963 17.2434 93.3592 16.2367 92.7757 15.4313 92.4856 14.4178 92.4856 13.1893 92.4856 11.7254 92.8678 10.5753 93.6356 9.7461 94.4034 8.91686 95.3692 8.50054 96.5396 8.50054 97.8535 8.50054 98.8943 8.93393 99.6518 9.80411 100.413 10.6743 100.775 12.0052 100.744 13.7967L94.8812 13.7967C94.8982 14.4895 95.0859 15.0287 95.4476 15.4177 95.8094 15.8033 96.2564 15.9978 96.7956 15.9978 97.1607 15.9978 97.4713 15.8988 97.7204 15.6975 97.9695 15.4962 98.1572 15.1754 98.2868 14.7318ZM98.4199 12.3669C98.4029 11.6912 98.2288 11.1759 97.8944 10.821 97.56 10.4696 97.1573 10.2921 96.6796 10.2921 96.1677 10.2921 95.7479 10.4764 95.4135 10.8483 95.0791 11.2203 94.9153 11.7254 94.9221 12.3635L98.4199 12.3635Z" fill="#1D743B" transform="matrix(1 0 0 1.00904 696 660.014)"/><path d="M110.695 17.5437 108.354 17.5437 108.354 13.0323C108.354 12.0768 108.303 11.4592 108.204 11.1794 108.105 10.8995 107.941 10.6811 107.716 10.5242 107.49 10.3672 107.221 10.2921 106.903 10.2921 106.497 10.2921 106.136 10.4047 105.811 10.6265 105.491 10.8483 105.269 11.1418 105.149 11.5104 105.03 11.8755 104.972 12.5546 104.972 13.5408L104.972 17.5471 102.631 17.5471 102.631 8.70529 104.805 8.70529 104.805 10.0055C105.576 9.00559 106.549 8.50736 107.719 8.50736 108.234 8.50736 108.709 8.5995 109.135 8.78719 109.562 8.97488 109.886 9.21034 110.104 9.5004 110.323 9.79046 110.476 10.1147 110.562 10.4832 110.647 10.8483 110.691 11.3739 110.691 12.0564L110.691 17.5505Z" fill="#1D743B" transform="matrix(1 0 0 1.00904 696 660.014)"/><path d="M113.09 17.5437 113.09 5.34056 114.704 5.34056 114.704 16.107 120.714 16.107 120.714 17.5471 113.087 17.5471Z" fill="#1D743B" transform="matrix(1 0 0 1.00904 696 660.014)"/><path d="M122.458 7.06388 122.458 5.34056 123.956 5.34056 123.956 7.06388 122.458 7.06388ZM122.458 17.5437 122.458 8.70188 123.956 8.70188 123.956 17.5437 122.458 17.5437Z" fill="#1D743B" transform="matrix(1 0 0 1.00904 696 660.014)"/><path d="M126.239 17.5437 126.239 8.70188 127.587 8.70188 127.587 9.95768C128.235 8.98511 129.173 8.50054 130.402 8.50054 130.934 8.50054 131.426 8.59609 131.873 8.78719 132.32 8.97829 132.654 9.23081 132.876 9.54135 133.098 9.85189 133.255 10.2204 133.343 10.647 133.398 10.9234 133.425 11.4114 133.425 12.1041L133.425 17.5403 131.927 17.5403 131.927 12.1622C131.927 11.5513 131.869 11.094 131.753 10.7937 131.637 10.49 131.429 10.2512 131.132 10.0703 130.835 9.88943 130.487 9.8007 130.088 9.8007 129.45 9.8007 128.9 10.002 128.436 10.4081 127.972 10.8142 127.74 11.582 127.74 12.715L127.74 17.5437 126.242 17.5437Z" fill="#1D743B" transform="matrix(1 0 0 1.00904 696 660.014)"/><path d="M135.729 17.5437 135.729 5.34056 137.227 5.34056 137.227 12.3021 140.772 8.70529 142.711 8.70529 139.329 11.9847 143.052 17.5471 141.202 17.5471 138.281 13.0255 137.223 14.0424 137.223 17.5471 135.725 17.5471Z" fill="#1D743B" transform="matrix(1 0 0 1.00904 696 660.014)"/><path d="M113.008 36.0565 113.008 23.85 121.243 23.85 121.243 25.29 114.622 25.29 114.622 29.0711 120.352 29.0711 120.352 30.5112 114.622 30.5112 114.622 36.0565 113.008 36.0565Z" fill="#1D743B" transform="matrix(1 0 0 1.00904 696 660.014)"/><path d="M122.594 31.6373C122.594 29.9993 123.048 28.7879 123.959 27.9996 124.72 27.3444 125.645 27.0168 126.74 27.0168 127.955 27.0168 128.948 27.416 129.719 28.2111 130.491 29.0063 130.876 30.1085 130.876 31.511 130.876 32.6474 130.706 33.5449 130.364 34.1967 130.023 34.8485 129.525 35.3569 128.873 35.7152 128.221 36.077 127.508 36.2578 126.737 36.2578 125.498 36.2578 124.498 35.862 123.734 35.0669 122.969 34.2717 122.591 33.1286 122.591 31.6373ZM124.133 31.6373C124.133 32.7702 124.379 33.6165 124.874 34.1796 125.368 34.7427 125.99 35.0259 126.74 35.0259 127.491 35.0259 128.102 34.7427 128.597 34.1762 129.091 33.6097 129.337 32.7464 129.337 31.5861 129.337 30.4941 129.088 29.6649 128.593 29.1018 128.095 28.5387 127.477 28.2555 126.74 28.2555 126.003 28.2555 125.368 28.5353 124.874 29.095 124.379 29.6546 124.133 30.5009 124.133 31.6339Z" fill="#1D743B" transform="matrix(1 0 0 1.00904 696 660.014)"/><path d="M132.617 36.0565 132.617 27.2147 133.965 27.2147 133.965 28.5558C134.309 27.9279 134.627 27.515 134.917 27.3137 135.207 27.1123 135.527 27.0134 135.879 27.0134 136.384 27.0134 136.896 27.1737 137.418 27.4979L136.903 28.8868C136.538 28.6718 136.169 28.5626 135.804 28.5626 135.476 28.5626 135.183 28.6616 134.92 28.8595 134.661 29.0574 134.473 29.3304 134.364 29.6785 134.197 30.2109 134.115 30.7944 134.115 31.4257L134.115 36.0531 132.617 36.0531Z" fill="#1D743B" transform="matrix(1 0 0 1.00904 696 660.014)"/><path d="M144.362 33.2105 145.912 33.4016C145.666 34.3059 145.216 35.0088 144.554 35.5071 143.892 36.0053 143.049 36.2578 142.021 36.2578 140.728 36.2578 139.704 35.8586 138.947 35.0634 138.189 34.2683 137.81 33.149 137.81 31.7124 137.81 30.2757 138.193 29.0711 138.96 28.2487 139.728 27.4263 140.721 27.0168 141.94 27.0168 143.158 27.0168 144.086 27.4194 144.837 28.2248 145.588 29.0301 145.959 30.1631 145.959 31.6202 145.959 31.709 145.959 31.842 145.953 32.0195L139.36 32.0195C139.414 32.9921 139.691 33.736 140.186 34.2513 140.68 34.7666 141.295 35.0259 142.035 35.0259 142.585 35.0259 143.052 34.8826 143.441 34.5925 143.83 34.3025 144.137 33.8418 144.366 33.2105ZM139.445 30.7876 144.383 30.7876C144.318 30.0437 144.127 29.4874 143.816 29.1155 143.339 28.5387 142.721 28.2487 141.96 28.2487 141.271 28.2487 140.694 28.4773 140.223 28.9414 139.756 29.4021 139.496 30.0198 139.445 30.791Z" fill="#1D743B" transform="matrix(1 0 0 1.00904 696 660.014)"/><path d="M147.195 33.4186 148.676 33.1866C148.758 33.7803 148.99 34.2342 149.372 34.5516 149.751 34.8689 150.283 35.0259 150.966 35.0259 151.648 35.0259 152.163 34.886 152.498 34.6062 152.832 34.3263 152.996 33.9953 152.996 33.62 152.996 33.2821 152.849 33.0159 152.556 32.8214 152.351 32.6883 151.839 32.5177 151.024 32.313 149.925 32.0366 149.164 31.7943 148.737 31.5929 148.314 31.3916 147.99 31.1084 147.772 30.7535 147.553 30.3951 147.444 29.9993 147.444 29.5659 147.444 29.1735 147.533 28.8083 147.714 28.4705 147.894 28.1361 148.14 27.8562 148.451 27.6344 148.683 27.4638 149 27.3171 149.403 27.1976 149.805 27.0782 150.235 27.0202 150.696 27.0202 151.389 27.0202 152 27.1191 152.525 27.3205 153.051 27.5218 153.436 27.7914 153.685 28.1327 153.934 28.4739 154.109 28.9312 154.201 29.5011L152.737 29.699C152.668 29.2451 152.477 28.8902 152.157 28.6343 151.836 28.3784 151.385 28.2521 150.805 28.2521 150.116 28.2521 149.624 28.3647 149.331 28.5933 149.038 28.822 148.891 29.0882 148.891 29.3919 148.891 29.5864 148.952 29.7604 149.075 29.9174 149.198 30.0778 149.389 30.2109 149.648 30.3167 149.799 30.3713 150.239 30.5009 150.972 30.6989 152.034 30.9821 152.771 31.2141 153.191 31.395 153.61 31.5759 153.938 31.8386 154.177 32.1833 154.416 32.528 154.535 32.9545 154.535 33.4664 154.535 33.9783 154.388 34.4355 154.098 34.8792 153.808 35.3228 153.385 35.6606 152.836 35.9029 152.286 36.1452 151.665 36.2646 150.969 36.2646 149.819 36.2646 148.945 36.0258 148.341 35.548 147.737 35.0703 147.355 34.3639 147.188 33.4254Z" fill="#1D743B" transform="matrix(1 0 0 1.00904 696 660.014)"/><path d="M159.592 34.7154 159.807 36.0394C159.384 36.1281 159.009 36.1725 158.674 36.1725 158.132 36.1725 157.709 36.0872 157.408 35.9132 157.108 35.7391 156.897 35.5139 156.777 35.2341 156.658 34.9542 156.593 34.3639 156.593 33.4664L156.593 28.3784 155.494 28.3784 155.494 27.2113 156.593 27.2113 156.593 25.0205 158.084 24.123 158.084 27.2113 159.592 27.2113 159.592 28.3784 158.084 28.3784 158.084 33.5483C158.084 33.9749 158.111 34.2513 158.163 34.3741 158.214 34.497 158.302 34.5925 158.422 34.6642 158.541 34.7358 158.712 34.7734 158.934 34.7734 159.101 34.7734 159.319 34.7529 159.592 34.7154Z" fill="#1D743B" transform="matrix(1 0 0 1.00904 696 660.014)"/><path d="M161.039 36.0565 161.039 27.2147 162.387 27.2147 162.387 28.5558C162.732 27.9279 163.049 27.515 163.339 27.3137 163.629 27.1123 163.95 27.0134 164.302 27.0134 164.807 27.0134 165.319 27.1737 165.841 27.4979L165.325 28.8868C164.96 28.6718 164.592 28.5626 164.227 28.5626 163.899 28.5626 163.606 28.6616 163.343 28.8595 163.083 29.0574 162.896 29.3304 162.787 29.6785 162.619 30.2109 162.537 30.7944 162.537 31.4257L162.537 36.0531 161.039 36.0531Z" fill="#1D743B" transform="matrix(1 0 0 1.00904 696 660.014)"/><path d="M166.67 39.4622 166.503 38.0562C166.83 38.1449 167.117 38.1893 167.359 38.1893 167.694 38.1893 167.96 38.1347 168.158 38.0221 168.359 37.9095 168.523 37.7559 168.649 37.5546 168.745 37.4044 168.895 37.0325 169.106 36.4387 169.134 36.3568 169.178 36.2339 169.24 36.0735L165.885 27.2147 167.499 27.2147 169.339 32.3334C169.577 32.9818 169.792 33.6643 169.98 34.3809 170.151 33.6916 170.359 33.0228 170.598 32.3676L172.488 27.2147 173.986 27.2147 170.622 36.2066C170.26 37.1792 169.98 37.848 169.782 38.2132 169.516 38.708 169.209 39.0697 168.868 39.2984 168.523 39.527 168.113 39.643 167.636 39.643 167.346 39.643 167.025 39.5816 166.67 39.4587Z" fill="#1D743B" transform="matrix(1 0 0 1.00904 696 660.014)"/><path d="M6.65096 18.4821C6.64073 15.9876 7.84534 13.6432 9.87578 12.1963L9.87578 25.0341C9.97474 24.9966 10.0737 24.9624 10.1761 24.9215 10.5515 24.7713 10.9166 24.6314 11.2715 24.5018L11.2715 16.3902C13.2849 17.4447 14.4963 19.1407 14.4963 20.9801L14.4963 22.8365C14.4963 23.1368 14.6908 23.4029 14.9809 23.4917 15.2163 23.4575 15.4552 23.4268 15.6975 23.4029 16.4585 23.3279 17.2263 23.3279 17.9873 23.4029L17.9873 18.7653C17.9839 18.605 17.9805 18.4446 17.9805 18.2842 17.9805 18.1238 17.9805 17.96 17.9873 17.7996 18.059 15.0048 19.4581 12.4113 21.7581 10.8176 21.7581 11.1521 22.0038 11.4353 22.3348 11.4899 22.4781 11.5138 22.6181 11.5513 22.7546 11.5991 22.7784 11.6059 22.8023 11.6127 22.8296 11.6196 22.8535 11.6332 22.8774 11.6435 22.9013 11.6503 23.4814 11.8789 24.0206 12.1997 24.4983 12.599L24.6621 12.7389C26.092 14.0288 26.9042 15.8715 26.8905 17.7996 26.9042 18.1818 27.2249 18.4787 27.6071 18.465 27.9757 18.4514 28.2692 18.1511 28.2726 17.7791L28.2726 11.4933 29.7502 11.4933 29.7502 21.4442C29.7502 21.8229 30.0573 22.1301 30.4361 22.1301L33.4903 22.1301C33.8691 22.1301 34.1762 21.8229 34.1762 21.4442L34.1762 19.1612 37.0495 17.8337 37.8617 17.4584 37.8617 22.1847C38.4794 22.0721 39.1038 22.0004 39.7317 21.9765L39.7317 3.59678 40.5303 6.43939C40.7623 7.26863 41.67 8.4903 42.8849 8.4903 44.0997 8.4903 45.0075 7.26521 45.2395 6.43939L46.0346 3.59678 46.0346 23.3756C46.509 23.6179 46.9662 23.8875 47.4099 24.181L47.4099 1.19096C47.4099 0.812175 47.1027 0.50505 46.724 0.50505L39.0458 0.50505C38.667 0.50505 38.3599 0.812175 38.3599 1.19096L38.3599 15.7248C38.3292 15.735 38.2951 15.7453 38.2644 15.7589L33.2002 18.0965C32.9579 18.2091 32.801 18.4514 32.801 18.721L32.801 20.7548 31.122 20.7548 31.122 10.8074C31.122 10.4286 30.8149 10.1215 30.4361 10.1215L27.5867 10.1215C27.2079 10.1215 26.9007 10.4286 26.9007 10.8074L26.9007 13.2234C26.5254 12.6604 26.0783 12.1485 25.5699 11.6981L25.389 11.5445C24.9147 11.1486 24.396 10.8176 23.8397 10.5515L23.8397 6.97856C23.8397 6.59978 23.5326 6.29265 23.1538 6.29265L22.9832 6.29265C22.6044 6.29265 22.2973 6.59978 22.2939 6.97856L22.2939 6.97856 22.2939 9.14891 22.1881 9.16256C22.171 9.16256 22.154 9.16598 22.1369 9.16939 21.3486 9.32978 20.0143 10.1658 18.8199 11.681 17.4481 13.4145 16.6735 15.5439 16.6155 17.7552L16.6155 17.7621C16.6121 17.9327 16.6086 18.1033 16.6086 18.2774 16.6086 18.4514 16.6086 18.6186 16.6155 18.7892L16.6155 22.1437 15.875 22.1437 15.875 20.9732C15.875 18.4036 14.1141 16.0899 11.251 14.8512L11.251 10.978C11.251 10.5992 10.9439 10.2921 10.5651 10.2921 10.4559 10.2921 10.3501 10.316 10.2546 10.3672 7.19355 11.9096 5.26549 15.0525 5.27573 18.4787L5.27573 25.0239C5.70911 25.2354 6.17321 25.3788 6.65096 25.4538L6.65096 18.4787ZM44.8334 2.78801 43.9155 6.07084C43.7858 6.53153 43.2739 7.11848 42.8849 7.11848 42.4959 7.11848 41.984 6.53494 41.8543 6.07084L40.9364 2.78801 44.8334 2.78801Z" fill="#1D743B" transform="matrix(1 0 0 1.00904 696 660.014)"/><path d="M27.9074 33.7155 28.0439 33.4903 27.962 33.5892C27.9347 33.6268 27.9143 33.6711 27.9074 33.7189Z" fill="#1D743B" transform="matrix(1 0 0 1.00904 696 660.014)"/><path d="M20.1065 14.295C20.1065 15.2334 20.8674 15.9944 21.8059 15.9944 22.7443 15.9944 23.5053 15.2334 23.5053 14.295 23.5053 13.3565 22.7443 12.599 21.8059 12.5955 20.8674 12.5955 20.1065 13.3565 20.1065 14.295ZM22.1301 14.295C22.1301 14.4724 21.9833 14.6192 21.8059 14.6192 21.6284 14.6192 21.4817 14.4758 21.4817 14.295 21.4817 14.1141 21.6284 13.9708 21.8059 13.9708 21.9833 13.9708 22.1301 14.1175 22.1301 14.295Z" fill="#1D743B" transform="matrix(1 0 0 1.00904 696 660.014)"/><path d="M51.3615 29.8662C51.2523 29.6615 51.1295 29.4601 51.0101 29.2656L51.0135 29.2656C51.0135 29.2656 50.9452 29.153 50.9452 29.153 47.9729 24.2595 42.6392 21.9185 37.3532 23.1879 35.0225 23.7544 32.917 25.017 31.3165 26.8086 30.8558 27.3034 30.4634 27.8562 30.146 28.4534L30.7125 28.1804C31.709 27.6788 32.7771 27.3375 33.8793 27.1601 35.4491 26.9315 37.0461 26.9861 38.5988 27.3205 39.0424 27.4058 39.3257 27.6447 39.2369 28.1156 39.1482 28.5865 38.7933 28.7094 38.3531 28.6309 38.2268 28.6002 38.1006 28.5763 37.9743 28.5626 36.9676 28.5012 35.9575 28.3715 34.9542 28.4057 32.859 28.4773 31.3541 29.269 29.542 30.2757 29.5181 30.3303 29.484 30.3815 29.4396 30.4224 29.0233 30.7978 28.6445 31.2141 28.2453 31.6509 28.0576 31.8557 27.8631 32.0707 27.6651 32.2788 27.5832 32.3642 27.4672 32.4153 27.3478 32.4153 27.3171 32.4153 27.2864 32.4119 27.2556 32.4051 27.1055 32.3744 26.9861 32.2686 26.9349 32.1253 26.6585 31.3472 26.3104 30.5965 25.8975 29.8799 25.5665 29.3066 25.1911 28.7571 24.7782 28.2419 22.3416 25.232 19.4001 23.9353 15.7896 24.2799 13.9674 24.512 12.1895 25.0034 10.5071 25.7405 7.90335 26.7745 5.70911 26.5766 3.79811 25.1433 3.71963 25.116 3.63431 25.1092 3.55583 25.1297 3.50805 25.1535 3.43639 25.1877 3.33401 25.232 3.26235 25.2627 3.1395 25.3173 3.01665 25.3788 3.01665 25.8668 3.07466 26.3547 3.18728 26.8325 3.75716 29.2724 5.04709 31.3472 6.6066 33.2582 7.8897 34.8314 9.22058 36.3807 11.0292 37.3771 16.0251 40.1378 20.9016 39.4587 25.6825 36.7799L25.8429 36.681C24.8294 35.7255 23.693 34.9099 22.4611 34.2581 20.8094 33.3947 18.9974 32.876 17.1376 32.7327 16.3288 32.6645 16.0388 32.4563 16.0865 31.9785 16.1343 31.5008 16.4551 31.337 17.2434 31.4018 20.9391 31.709 24.4028 33.3197 27.0202 35.9473 27.1191 36.3534 27.2215 36.756 27.3375 37.1553 27.747 38.5374 28.7094 39.684 29.9959 40.3289 30.2996 40.5337 30.7091 40.4552 30.9138 40.1515 31.1186 39.8478 31.0401 39.4383 30.7364 39.2335 30.7193 39.2233 30.7023 39.213 30.6852 39.2028 30.5624 39.1209 30.4327 39.0527 30.3098 38.9742 29.5079 38.4998 28.9107 37.7423 28.6343 36.8516 28.3545 35.8995 28.1429 34.9269 27.9143 33.9612 27.8972 33.8861 27.8972 33.8076 27.9143 33.7292 27.9211 33.6814 27.9416 33.637 27.9689 33.5995L28.0508 33.5005C28.7742 32.6337 29.5011 31.7636 30.2586 30.9275 30.5862 30.5419 31.163 30.4941 31.5486 30.8183 31.5656 30.8319 31.5827 30.849 31.5998 30.8661 31.9956 31.1664 32.3915 31.4667 32.7702 31.7874 33.5244 32.4358 34.2479 33.1183 35.0123 33.753 37.1894 35.5651 39.5782 35.7869 42.0625 34.514 43.3558 33.8111 44.6116 33.0432 45.8265 32.214 46.7035 31.5963 47.7238 31.2107 48.7919 31.0981 49.6109 31.0367 50.4402 31.163 51.266 31.1595 51.5185 31.1698 51.7676 31.0811 51.9587 30.9173L51.3752 29.8764Z" fill="#1D743B" transform="matrix(1 0 0 1.00904 696 660.014)"/></g></svg>