<svg width="190" height="22" xmlns="http://www.w3.org/2000/svg" xmlns:xlink="http://www.w3.org/1999/xlink" xml:space="preserve" overflow="hidden"><g transform="translate(-1069 -670)"><path d="M40.4314 0C45.1167 0 47.1213 3.02979 47.1213 6.51133 47.1213 9.2192 45.8877 12.1191 42.7119 13.0551L47.1808 21.7576 43.0743 21.7576 38.765 13.3446 33.7767 13.3446C33.4385 13.3446 33.2519 13.5069 33.2519 13.8937L33.2519 21.7576 29.1455 21.7576C29.1455 21.7576 29.1455 13.1552 29.1455 13.1552 29.1455 10.7043 30.1626 9.70343 32.4431 9.70343L40.5531 9.70343C42.6199 9.70343 43.4504 8.221 43.4504 6.67364 43.4504 5.66732 42.555 4.27687 40.5531 4.27687L29.1455 4.27687 29.1455 0 40.4287 0Z" fill="#004D71" transform="matrix(1 0 0 1.00351 1069 670.041)"/><path d="M55.3964 0 55.3964 9.71154 65.1458 9.71154 65.1458 0 69.2522 0 69.2522 21.7576 65.1458 21.7576 65.1458 13.3365 55.3964 13.3365 55.3964 21.7576 51.2899 21.7576 51.2899 0 55.3964 0Z" fill="#004D71" transform="matrix(1 0 0 1.00351 1069 670.041)"/><path d="M10.1849 10.6611 8.75392 8.33732C8.46717 7.90179 7.89908 7.96942 7.65291 8.4293L0.0892705 20.6783C-0.16772 21.1544 0.16231 21.7441 0.684407 21.7441L3.44638 21.7576C3.69255 21.7576 3.86027 21.6197 3.982 21.3952L10.1795 11.3319C10.3094 11.0939 10.3337 10.8883 10.1849 10.6638Z" fill="#003A5D" transform="matrix(1 0 0 1.00351 1069 670.041)"/><path d="M19.2635 2.54286 17.8947 0.316504C17.6079-0.119027 17.0615-0.0892705 16.8234 0.316504L10.3364 10.8153C10.2093 11.0533 10.2823 11.3076 10.4284 11.5348L11.7621 13.6665C12.0488 14.102 12.671 14.075 12.9199 13.6151L19.35 3.23538C19.4772 2.99732 19.4096 2.77279 19.2608 2.54827Z" fill="#004D71" transform="matrix(1 0 0 1.00351 1069 670.041)"/><path d="M21.5548 12.5006 20.1345 10.2039C19.8478 9.76835 19.2932 9.81705 19.0444 10.2769L12.6331 20.6999C12.3761 21.176 12.7062 21.7658 13.2283 21.7658L15.9388 21.7658C16.185 21.7658 16.4122 21.6278 16.534 21.4033L21.5791 13.2201C21.709 12.9821 21.7035 12.7251 21.5548 12.5006Z" fill="#33718E" transform="matrix(1 0 0 1.00351 1069 670.041)"/><path d="M22.4556 18.4628 21.0191 20.7838C20.7811 21.2139 21.0786 21.7495 21.5521 21.7495L24.4249 21.7495C24.8983 21.7495 25.1959 21.2139 24.9579 20.7838L23.5214 18.4628C23.2834 18.0326 22.6909 18.0326 22.4529 18.4628Z" fill="#7FA6B8" transform="matrix(1 0 0 1.00351 1069 670.041)"/><path d="M74.6328 4.80437C74.8168 4.77462 75.0142 4.75839 75.2225 4.75839 75.7906 4.75839 76.2478 4.92881 76.5968 5.27237 76.9079 5.58887 77.0648 5.99194 77.0648 6.47617L77.0648 7.65021C77.0648 7.71784 77.0593 7.77735 77.0485 7.83416L77.2622 7.83416 77.2622 8.3779 77.1459 8.3779 76.9322 8.11009 76.9106 8.11009C76.87 8.16148 76.824 8.20747 76.7726 8.24805 76.6509 8.33461 76.5156 8.3779 76.3722 8.3779L73.8564 8.3779 73.8564 7.83416 76.1288 7.83416C76.3181 7.83416 76.4128 7.73677 76.4128 7.542L76.4128 6.56814C76.4128 6.20565 76.3019 5.90267 76.0828 5.66191 75.8474 5.41574 75.4849 5.2913 74.9926 5.28589 74.8492 5.28589 74.7302 5.29671 74.6328 5.31565L74.6328 4.80167Z" fill="#004D71" transform="matrix(1 0 0 1.00351 1069 670.041)"/><path d="M78.6229 7.83416 78.6229 8.3779 77.2027 8.3779 77.2027 7.83416 78.6229 7.83416Z" fill="#004D71" transform="matrix(1 0 0 1.00351 1069 670.041)"/><path d="M79.9863 7.83416 79.9863 8.3779 78.5661 8.3779 78.5661 7.83416 79.9863 7.83416Z" fill="#004D71" transform="matrix(1 0 0 1.00351 1069 670.041)"/><path d="M81.3524 7.83416 81.3524 8.3779 79.9322 8.3779 79.9322 7.83416 81.3524 7.83416Z" fill="#004D71" transform="matrix(1 0 0 1.00351 1069 670.041)"/><path d="M82.7186 7.83416 82.7186 8.3779 81.2983 8.3779 81.2983 7.83416 82.7186 7.83416Z" fill="#004D71" transform="matrix(1 0 0 1.00351 1069 670.041)"/><path d="M84.0847 7.83416 84.0847 8.3779 82.6644 8.3779 82.6644 7.83416 84.0847 7.83416Z" fill="#004D71" transform="matrix(1 0 0 1.00351 1069 670.041)"/><path d="M85.4508 7.83416 85.4508 8.3779 84.0306 8.3779 84.0306 7.83416 85.4508 7.83416Z" fill="#004D71" transform="matrix(1 0 0 1.00351 1069 670.041)"/><path d="M86.8169 7.83416 86.8169 8.3779 85.3967 8.3779 85.3967 7.83416 86.8169 7.83416Z" fill="#004D71" transform="matrix(1 0 0 1.00351 1069 670.041)"/><path d="M88.183 7.83416 88.183 8.3779 86.7628 8.3779 86.7628 7.83416 88.183 7.83416Z" fill="#004D71" transform="matrix(1 0 0 1.00351 1069 670.041)"/><path d="M89.5491 7.83416 89.5491 8.3779 88.1289 8.3779 88.1289 7.83416 89.5491 7.83416Z" fill="#004D71" transform="matrix(1 0 0 1.00351 1069 670.041)"/><path d="M90.9152 7.83416 90.9152 8.3779 89.495 8.3779 89.495 7.83416 90.9152 7.83416Z" fill="#004D71" transform="matrix(1 0 0 1.00351 1069 670.041)"/><path d="M92.2813 7.83416 92.2813 8.3779 90.8611 8.3779 90.8611 7.83416 92.2813 7.83416Z" fill="#004D71" transform="matrix(1 0 0 1.00351 1069 670.041)"/><path d="M93.6474 7.83416 93.6474 8.3779 92.2272 8.3779 92.2272 7.83416 93.6474 7.83416Z" fill="#004D71" transform="matrix(1 0 0 1.00351 1069 670.041)"/><path d="M95.0108 7.83416 95.0108 8.3779 93.5906 8.3779 93.5906 7.83416 95.0108 7.83416Z" fill="#004D71" transform="matrix(1 0 0 1.00351 1069 670.041)"/><path d="M96.991 4.85036 96.991 7.65021C96.991 7.71243 96.9829 7.77194 96.9694 7.83416L97.3751 7.83416 97.3751 8.3779 97.0749 8.3779 96.853 8.11009 96.8314 8.11009C96.6934 8.28863 96.5149 8.3779 96.2931 8.3779L94.9567 8.3779 94.9567 7.83416 96.0469 7.83416C96.1281 7.83416 96.1957 7.80981 96.2471 7.75841 96.3093 7.70161 96.3391 7.63127 96.3391 7.54471L96.3391 4.85036 96.991 4.85036ZM95.679 9.17863C95.7818 9.17863 95.8684 9.2165 95.9441 9.28954 96.0171 9.36258 96.055 9.45185 96.055 9.55464 96.055 9.66285 96.0171 9.75212 95.9441 9.82787 95.8711 9.90361 95.7818 9.93878 95.679 9.93878 95.5762 9.93878 95.4869 9.9009 95.4139 9.82787 95.3409 9.75483 95.303 9.66285 95.303 9.55464 95.303 9.44644 95.3409 9.36258 95.4139 9.28954 95.4869 9.2165 95.5762 9.17863 95.679 9.17863ZM96.6096 9.17863C96.7178 9.17863 96.807 9.2165 96.8828 9.28954 96.9585 9.36258 96.9937 9.45185 96.9937 9.55464 96.9937 9.66285 96.9558 9.75212 96.8828 9.82787 96.8098 9.9009 96.7178 9.93878 96.6096 9.93878 96.5014 9.93878 96.4175 9.9009 96.3445 9.82787 96.2714 9.75483 96.2336 9.66285 96.2336 9.55464 96.2336 9.44644 96.2714 9.36258 96.3445 9.28954 96.4175 9.2165 96.5068 9.17863 96.6096 9.17863Z" fill="#004D71" transform="matrix(1 0 0 1.00351 1069 670.041)"/><path d="M98.7412 7.83416 98.7412 8.3779 97.321 8.3779 97.321 7.83416 98.7412 7.83416Z" fill="#004D71" transform="matrix(1 0 0 1.00351 1069 670.041)"/><path d="M100.199 7.83416C99.9883 7.4906 99.8855 7.10106 99.8855 6.66012 99.8855 6.04063 100.059 5.56182 100.408 5.22638 100.719 4.92881 101.133 4.77732 101.644 4.7665 102.012 4.7665 102.317 4.84495 102.558 5.00456 102.926 5.25073 103.11 5.63486 103.11 6.15425L103.11 7.542C103.11 7.61234 103.129 7.67455 103.164 7.72595 103.21 7.79358 103.272 7.82875 103.348 7.83416L103.364 7.83416 103.364 8.3779 103.172 8.3779C102.942 8.3779 102.758 8.28863 102.62 8.11009 102.345 8.44282 101.993 8.60784 101.568 8.60784 101.143 8.60784 100.738 8.44282 100.41 8.11009L100.394 8.11009 100.18 8.3779 98.6926 8.3779 98.6926 7.83416 100.205 7.83416ZM102.455 6.15425C102.455 5.88915 102.372 5.67544 102.201 5.51854 102.052 5.38057 101.86 5.31024 101.625 5.31024 101.298 5.31024 101.035 5.43197 100.835 5.67544 100.635 5.9189 100.535 6.23811 100.535 6.63036 100.535 7.04425 100.64 7.39051 100.849 7.66644 101.049 7.93154 101.298 8.0641 101.601 8.0641 101.904 8.0641 102.182 7.92884 102.453 7.65832L102.453 6.15425Z" fill="#004D71" transform="matrix(1 0 0 1.00351 1069 670.041)"/><path d="M104.72 7.83416 104.72 8.3779 103.299 8.3779 103.299 7.83416 104.72 7.83416Z" fill="#004D71" transform="matrix(1 0 0 1.00351 1069 670.041)"/><path d="M105.685 4.98021C106.156 4.83143 106.597 4.75839 107.006 4.75839 107.639 4.75839 108.123 4.95586 108.455 5.34811 108.742 5.68626 108.886 6.1272 108.886 6.67635L108.886 7.65021C108.886 7.71243 108.878 7.77194 108.861 7.83416L109.129 7.83416 109.129 8.3779 108.967 8.3779 108.753 8.11009 108.731 8.11009C108.588 8.28863 108.41 8.3779 108.193 8.3779L104.663 8.3779 104.663 7.83416 107.939 7.83416C108.134 7.83416 108.231 7.73677 108.231 7.542L108.231 6.652C108.231 6.25164 108.125 5.93784 107.917 5.7079 107.687 5.45091 107.352 5.32377 106.911 5.32377 106.646 5.32377 106.235 5.38057 105.683 5.49149L105.683 4.9775Z" fill="#004D71" transform="matrix(1 0 0 1.00351 1069 670.041)"/><path d="M111.112 2.88641 111.112 7.65291C111.112 7.8531 111.044 8.02082 110.912 8.15878 110.774 8.30756 110.609 8.3806 110.414 8.3806L109.078 8.3806 109.078 7.83686 110.168 7.83686C110.265 7.83686 110.338 7.8044 110.39 7.73677 110.436 7.67996 110.457 7.61775 110.457 7.54471L110.457 2.88641 111.109 2.88641Z" fill="#004D71" transform="matrix(1 0 0 1.00351 1069 670.041)"/><path d="M112.822 2.88641 112.822 8.30486 112.492 8.57267 112.17 8.57267 112.17 2.88641 112.822 2.88641Z" fill="#004D71" transform="matrix(1 0 0 1.00351 1069 670.041)"/><path d="M115.838 4.80437C116.022 4.77462 116.219 4.75839 116.428 4.75839 116.996 4.75839 117.453 4.92881 117.802 5.27237 118.113 5.58887 118.27 5.99194 118.27 6.47617L118.27 7.65021C118.27 7.71784 118.264 7.77735 118.254 7.83416L118.467 7.83416 118.467 8.3779 118.351 8.3779 118.137 8.11009 118.116 8.11009C118.075 8.16148 118.029 8.20747 117.978 8.24805 117.856 8.33461 117.721 8.3779 117.577 8.3779L115.062 8.3779 115.062 7.83416 117.334 7.83416C117.523 7.83416 117.618 7.73677 117.618 7.542L117.618 6.56814C117.618 6.20565 117.507 5.90267 117.288 5.66191 117.053 5.41574 116.69 5.2913 116.198 5.28589 116.054 5.28589 115.935 5.29671 115.838 5.31565L115.838 4.80167Z" fill="#004D71" transform="matrix(1 0 0 1.00351 1069 670.041)"/><path d="M119.828 7.83416 119.828 8.3779 118.408 8.3779 118.408 7.83416 119.828 7.83416Z" fill="#004D71" transform="matrix(1 0 0 1.00351 1069 670.041)"/><path d="M121.194 7.83416 121.194 8.3779 119.774 8.3779 119.774 7.83416 121.194 7.83416Z" fill="#004D71" transform="matrix(1 0 0 1.00351 1069 670.041)"/><path d="M122.56 7.83416 122.56 8.3779 121.14 8.3779 121.14 7.83416 122.56 7.83416Z" fill="#004D71" transform="matrix(1 0 0 1.00351 1069 670.041)"/><path d="M123.926 7.83416 123.926 8.3779 122.506 8.3779 122.506 7.83416 123.926 7.83416Z" fill="#004D71" transform="matrix(1 0 0 1.00351 1069 670.041)"/><path d="M125.292 7.83416 125.292 8.3779 123.872 8.3779 123.872 7.83416 125.292 7.83416Z" fill="#004D71" transform="matrix(1 0 0 1.00351 1069 670.041)"/><path d="M126.656 7.83416 126.656 8.3779 125.236 8.3779 125.236 7.83416 126.656 7.83416Z" fill="#004D71" transform="matrix(1 0 0 1.00351 1069 670.041)"/><path d="M128.022 7.83416 128.022 8.3779 126.602 8.3779 126.602 7.83416 128.022 7.83416Z" fill="#004D71" transform="matrix(1 0 0 1.00351 1069 670.041)"/><path d="M129.388 7.83416 129.388 8.3779 127.968 8.3779 127.968 7.83416 129.388 7.83416Z" fill="#004D71" transform="matrix(1 0 0 1.00351 1069 670.041)"/><path d="M130.754 7.83416 130.754 8.3779 129.334 8.3779 129.334 7.83416 130.754 7.83416Z" fill="#004D71" transform="matrix(1 0 0 1.00351 1069 670.041)"/><path d="M132.12 7.83416 132.12 8.3779 130.7 8.3779 130.7 7.83416 132.12 7.83416Z" fill="#004D71" transform="matrix(1 0 0 1.00351 1069 670.041)"/><path d="M133.486 7.83416 133.486 8.3779 132.066 8.3779 132.066 7.83416 133.486 7.83416Z" fill="#004D71" transform="matrix(1 0 0 1.00351 1069 670.041)"/><path d="M134.852 7.83416 134.852 8.3779 133.432 8.3779 133.432 7.83416 134.852 7.83416Z" fill="#004D71" transform="matrix(1 0 0 1.00351 1069 670.041)"/><path d="M136.219 7.83416 136.219 8.3779 134.798 8.3779 134.798 7.83416 136.219 7.83416Z" fill="#004D71" transform="matrix(1 0 0 1.00351 1069 670.041)"/><path d="M137.585 7.83416 137.585 8.3779 136.165 8.3779 136.165 7.83416 137.585 7.83416Z" fill="#004D71" transform="matrix(1 0 0 1.00351 1069 670.041)"/><path d="M144.826 4.85036 144.826 7.65021C144.826 7.85039 144.759 8.02082 144.624 8.16419 144.488 8.30756 144.326 8.3779 144.137 8.3779L142.657 8.3779 142.411 8.11009 142.389 8.11009C142.246 8.28863 142.067 8.3779 141.851 8.3779L140.376 8.3779 140.122 8.11009 140.101 8.11009C139.957 8.28863 139.779 8.3779 139.562 8.3779L137.528 8.3779 137.528 7.83416 139.308 7.83416C139.503 7.83416 139.6 7.73677 139.6 7.542L139.6 5.73225 140.252 5.73225 140.252 7.65021C140.252 7.71784 140.247 7.77735 140.236 7.83416L141.594 7.83416C141.789 7.83416 141.886 7.73677 141.886 7.542L141.886 5.28589 142.538 5.28589 142.538 7.65021C142.538 7.71784 142.53 7.77735 142.516 7.83416L143.882 7.83416C144.077 7.83416 144.174 7.73677 144.174 7.542L144.174 4.84766 144.826 4.84766ZM141.759 3.16234C141.867 3.16234 141.956 3.20021 142.032 3.27325 142.105 3.34629 142.143 3.43556 142.143 3.53836 142.143 3.64656 142.105 3.73583 142.032 3.81158 141.959 3.88462 141.867 3.92249 141.759 3.92249 141.651 3.92249 141.569 3.88462 141.494 3.81158 141.418 3.73854 141.383 3.64656 141.383 3.53836 141.383 3.43015 141.421 3.34899 141.494 3.27325 141.567 3.19751 141.656 3.16234 141.759 3.16234ZM142.227 2.42383C142.33 2.42383 142.416 2.459 142.484 2.53203 142.554 2.60237 142.587 2.68893 142.587 2.78632 142.587 2.88371 142.551 2.96757 142.484 3.04061 142.416 3.11094 142.33 3.14881 142.227 3.14881 142.124 3.14881 142.046 3.11365 141.972 3.04061 141.899 2.97027 141.864 2.88371 141.864 2.78632 141.864 2.68893 141.899 2.60507 141.972 2.53203 142.043 2.4617 142.129 2.42383 142.227 2.42383ZM142.695 3.16234C142.798 3.16234 142.884 3.20021 142.96 3.27325 143.036 3.34629 143.071 3.43556 143.071 3.53836 143.071 3.64656 143.033 3.73583 142.96 3.81158 142.887 3.88732 142.798 3.92249 142.695 3.92249 142.592 3.92249 142.503 3.88462 142.43 3.81158 142.357 3.73854 142.319 3.64656 142.319 3.53836 142.319 3.43015 142.357 3.34899 142.43 3.27325 142.503 3.20021 142.592 3.16234 142.695 3.16234Z" fill="#004D71" transform="matrix(1 0 0 1.00351 1069 670.041)"/><path d="M146.539 2.88641 146.539 8.30486 146.209 8.57267 145.887 8.57267 145.887 2.88641 146.539 2.88641Z" fill="#004D71" transform="matrix(1 0 0 1.00351 1069 670.041)"/><path d="M149.087 4.85036 149.087 7.83416 149.479 7.83416 149.479 8.3779 149.087 8.3779C149.071 9.01632 148.844 9.49513 148.405 9.81164 148.054 10.0713 147.594 10.2039 147.031 10.2039 146.945 10.2039 146.834 10.2039 146.701 10.1958L146.447 9.88197 146.447 9.6358C146.596 9.65744 146.755 9.66556 146.931 9.66556 147.935 9.66556 148.435 9.20568 148.435 8.28322L148.435 4.84495 149.087 4.84495Z" fill="#004D71" transform="matrix(1 0 0 1.00351 1069 670.041)"/><path d="M151.457 2.88641 151.457 7.65291C151.457 7.8531 151.389 8.02082 151.257 8.15878 151.119 8.30756 150.954 8.3806 150.759 8.3806L149.423 8.3806 149.423 7.83686 150.513 7.83686C150.61 7.83686 150.683 7.8044 150.735 7.73677 150.781 7.67996 150.802 7.61775 150.802 7.54471L150.802 2.88641 151.454 2.88641Z" fill="#004D71" transform="matrix(1 0 0 1.00351 1069 670.041)"/><path d="M153.169 2.88641 153.169 8.30486 152.839 8.57267 152.517 8.57267 152.517 2.88641 153.169 2.88641Z" fill="#004D71" transform="matrix(1 0 0 1.00351 1069 670.041)"/><path d="M156.183 4.80437C156.367 4.77462 156.564 4.75839 156.772 4.75839 157.341 4.75839 157.798 4.92881 158.147 5.27237 158.458 5.58887 158.615 5.99194 158.615 6.47617L158.615 7.65021C158.615 7.71784 158.609 7.77735 158.598 7.83416L158.812 7.83416 158.812 8.3779 158.699 8.3779 158.485 8.11009 158.463 8.11009C158.423 8.16148 158.377 8.20747 158.325 8.24805 158.203 8.33461 158.068 8.3779 157.928 8.3779L155.412 8.3779 155.412 7.83416 157.684 7.83416C157.873 7.83416 157.968 7.73677 157.968 7.542L157.968 6.56814C157.968 6.20565 157.857 5.90267 157.638 5.66191 157.403 5.41574 157.04 5.2913 156.548 5.28589 156.405 5.28589 156.286 5.29671 156.188 5.31565L156.188 4.80167Z" fill="#004D71" transform="matrix(1 0 0 1.00351 1069 670.041)"/><path d="M160.173 7.83416 160.173 8.3779 158.753 8.3779 158.753 7.83416 160.173 7.83416Z" fill="#004D71" transform="matrix(1 0 0 1.00351 1069 670.041)"/><path d="M161.539 7.83416 161.539 8.3779 160.119 8.3779 160.119 7.83416 161.539 7.83416Z" fill="#004D71" transform="matrix(1 0 0 1.00351 1069 670.041)"/><path d="M162.905 7.83416 162.905 8.3779 161.485 8.3779 161.485 7.83416 162.905 7.83416Z" fill="#004D71" transform="matrix(1 0 0 1.00351 1069 670.041)"/><path d="M164.271 7.83416 164.271 8.3779 162.851 8.3779 162.851 7.83416 164.271 7.83416Z" fill="#004D71" transform="matrix(1 0 0 1.00351 1069 670.041)"/><path d="M165.637 7.83416 165.637 8.3779 164.217 8.3779 164.217 7.83416 165.637 7.83416Z" fill="#004D71" transform="matrix(1 0 0 1.00351 1069 670.041)"/><path d="M167.095 7.83416C166.884 7.4906 166.782 7.10106 166.782 6.66012 166.782 6.04063 166.955 5.56182 167.304 5.22638 167.615 4.92881 168.029 4.77732 168.54 4.7665 168.908 4.7665 169.214 4.84495 169.454 5.00456 169.822 5.25073 170.006 5.63486 170.006 6.15425L170.006 7.542C170.006 7.61234 170.025 7.67455 170.06 7.72595 170.106 7.79358 170.168 7.82875 170.244 7.83416L170.26 7.83416 170.26 8.3779 170.068 8.3779C169.838 8.3779 169.654 8.28863 169.516 8.11009 169.241 8.44282 168.889 8.60784 168.464 8.60784 168.039 8.60784 167.634 8.44282 167.306 8.11009L167.29 8.11009 167.076 8.3779 165.589 8.3779 165.589 7.83416 167.101 7.83416ZM169.351 6.15425C169.351 5.88915 169.268 5.67544 169.097 5.51854 168.948 5.38057 168.756 5.31024 168.521 5.31024 168.194 5.31024 167.931 5.43197 167.731 5.67544 167.531 5.9189 167.431 6.23811 167.431 6.63036 167.431 7.04425 167.536 7.39051 167.745 7.66644 167.945 7.93154 168.194 8.0641 168.497 8.0641 168.8 8.0641 169.078 7.92884 169.349 7.65832L169.349 6.15425Z" fill="#004D71" transform="matrix(1 0 0 1.00351 1069 670.041)"/><path d="M171.616 7.83416 171.616 8.3779 170.195 8.3779 170.195 7.83416 171.616 7.83416Z" fill="#004D71" transform="matrix(1 0 0 1.00351 1069 670.041)"/><path d="M172.982 7.83416 172.982 8.3779 171.562 8.3779 171.562 7.83416 172.982 7.83416Z" fill="#004D71" transform="matrix(1 0 0 1.00351 1069 670.041)"/><path d="M174.348 7.83416 174.348 8.3779 172.928 8.3779 172.928 7.83416 174.348 7.83416Z" fill="#004D71" transform="matrix(1 0 0 1.00351 1069 670.041)"/><path d="M175.714 7.83416 175.714 8.3779 174.294 8.3779 174.294 7.83416 175.714 7.83416Z" fill="#004D71" transform="matrix(1 0 0 1.00351 1069 670.041)"/><path d="M177.077 7.83416 177.077 8.3779 175.657 8.3779 175.657 7.83416 177.077 7.83416Z" fill="#004D71" transform="matrix(1 0 0 1.00351 1069 670.041)"/><path d="M178.444 7.83416 178.444 8.3779 177.023 8.3779 177.023 7.83416 178.444 7.83416Z" fill="#004D71" transform="matrix(1 0 0 1.00351 1069 670.041)"/><path d="M179.81 7.83416 179.81 8.3779 178.389 8.3779 178.389 7.83416 179.81 7.83416Z" fill="#004D71" transform="matrix(1 0 0 1.00351 1069 670.041)"/><path d="M181.176 7.83416 181.176 8.3779 179.756 8.3779 179.756 7.83416 181.176 7.83416Z" fill="#004D71" transform="matrix(1 0 0 1.00351 1069 670.041)"/><path d="M182.542 7.83416 182.542 8.3779 181.122 8.3779 181.122 7.83416 182.542 7.83416Z" fill="#004D71" transform="matrix(1 0 0 1.00351 1069 670.041)"/><path d="M183.908 7.83416 183.908 8.3779 182.488 8.3779 182.488 7.83416 183.908 7.83416Z" fill="#004D71" transform="matrix(1 0 0 1.00351 1069 670.041)"/><path d="M184.874 4.98021C185.344 4.83143 185.785 4.75839 186.194 4.75839 186.827 4.75839 187.311 4.95586 187.644 5.34811 187.931 5.68626 188.074 6.1272 188.074 6.67635L188.074 7.65021C188.074 7.82334 188.02 7.97753 187.912 8.11009 187.779 8.28863 187.603 8.3779 187.381 8.3779L183.851 8.3779 183.851 7.83416 187.127 7.83416C187.322 7.83416 187.419 7.73677 187.419 7.542L187.419 6.652C187.419 6.25164 187.314 5.93784 187.105 5.7079 186.876 5.45091 186.54 5.32377 186.099 5.32377 185.834 5.32377 185.423 5.38057 184.871 5.49149L184.871 4.9775Z" fill="#004D71" transform="matrix(1 0 0 1.00351 1069 670.041)"/><path d="M188.896 1.99371C188.788 1.85574 188.734 1.68802 188.734 1.48784 188.734 1.28766 188.794 1.12805 188.91 1.00903 189.029 0.889999 189.183 0.827781 189.378 0.827781 189.5 0.827781 189.624 0.849422 189.746 0.889999L189.746 1.2038C189.654 1.17945 189.564 1.16593 189.478 1.16593 189.213 1.16593 189.078 1.30118 189.078 1.5717 189.078 1.66909 189.11 1.75836 189.178 1.83951 189.259 1.94231 189.37 1.99371 189.508 1.99371L190 1.99371 190 2.12355 189.846 2.30751 188.555 2.30751 188.555 1.99371 188.894 1.99371ZM189.686 2.88641 189.686 8.30486 189.356 8.57267 189.034 8.57267 189.034 2.88641 189.686 2.88641Z" fill="#004D71" transform="matrix(1 0 0 1.00351 1069 670.041)"/><path d="M139.93 11.5592 139.93 13.6503C139.93 13.7287 139.952 13.7882 139.995 13.8315 140.046 13.8829 140.109 13.91 140.176 13.91L140.182 13.91 140.182 14.2021 140.049 14.2021C139.898 14.2021 139.773 14.1372 139.673 14.0101 139.4 14.1832 139.124 14.2697 138.845 14.2697 138.458 14.2697 138.153 14.1264 137.931 13.8396 137.747 13.6043 137.655 13.3148 137.655 12.974 137.655 12.5439 137.796 12.1949 138.074 11.9271 138.321 11.6917 138.626 11.5754 138.991 11.5754 139.2 11.5754 139.405 11.6187 139.603 11.7025L139.768 11.5646 139.927 11.5646ZM139.603 11.9893C139.419 11.8946 139.229 11.8459 139.035 11.8459 138.707 11.8459 138.44 11.9704 138.234 12.2219 138.066 12.4302 137.98 12.6818 137.98 12.9713 137.98 13.2878 138.074 13.5394 138.261 13.726 138.426 13.8883 138.637 13.9695 138.897 13.9695 139.1 13.9695 139.335 13.8964 139.608 13.7477L139.603 11.9893ZM139.173 10.4501C139.227 10.4501 139.275 10.469 139.319 10.5096 139.362 10.5501 139.381 10.5988 139.381 10.6584 139.381 10.7125 139.359 10.7611 139.319 10.8044 139.278 10.8477 139.227 10.8666 139.173 10.8666 139.113 10.8666 139.064 10.845 139.024 10.8044 138.983 10.7639 138.964 10.7125 138.964 10.6584 138.964 10.5988 138.986 10.5501 139.024 10.5096 139.064 10.469 139.113 10.4501 139.173 10.4501ZM139.714 10.4501C139.773 10.4501 139.822 10.469 139.862 10.5096 139.903 10.5501 139.922 10.5988 139.922 10.6584 139.922 10.7125 139.9 10.7611 139.862 10.8044 139.825 10.8477 139.773 10.8666 139.714 10.8666 139.66 10.8666 139.611 10.845 139.57 10.8044 139.53 10.7639 139.511 10.7125 139.511 10.6584 139.511 10.5988 139.53 10.5501 139.57 10.5096 139.611 10.469 139.66 10.4501 139.714 10.4501Z" fill="#33718E" transform="matrix(1 0 0 1.00351 1069 670.041)"/><path d="M141.166 13.91 141.166 14.2021 140.147 14.2021 140.147 13.91 141.166 13.91Z" fill="#33718E" transform="matrix(1 0 0 1.00351 1069 670.041)"/><path d="M142.443 11.6647 142.443 13.7449C142.443 13.7963 142.432 13.8504 142.411 13.91L142.714 13.91 142.714 14.2021 142.476 14.2021 142.354 14.0317 142.338 14.0317C142.243 14.1453 142.129 14.2021 141.997 14.2021L141.126 14.2021 141.126 13.91 141.87 13.91C141.959 13.91 142.024 13.8856 142.067 13.8315 142.108 13.7882 142.127 13.726 142.127 13.6503L142.127 11.6647 142.44 11.6647ZM141.694 14.9028C141.753 14.9028 141.802 14.9217 141.843 14.9623 141.883 15.0028 141.902 15.0515 141.902 15.1111 141.902 15.1652 141.881 15.2139 141.843 15.2571 141.805 15.3004 141.753 15.3194 141.694 15.3194 141.64 15.3194 141.591 15.2977 141.548 15.2571 141.505 15.2166 141.486 15.1652 141.486 15.1111 141.486 15.0515 141.507 15.0028 141.548 14.9623 141.591 14.9217 141.64 14.9028 141.694 14.9028ZM142.24 14.9028C142.294 14.9028 142.343 14.9217 142.384 14.9623 142.424 15.0028 142.443 15.0515 142.443 15.1111 142.443 15.1652 142.422 15.2139 142.384 15.2571 142.346 15.3004 142.294 15.3194 142.24 15.3194 142.181 15.3194 142.132 15.2977 142.092 15.2571 142.051 15.2139 142.032 15.1652 142.032 15.1111 142.032 15.0515 142.051 15.0028 142.092 14.9623 142.132 14.9217 142.181 14.9028 142.24 14.9028Z" fill="#33718E" transform="matrix(1 0 0 1.00351 1069 670.041)"/><path d="M143.696 13.91 143.696 14.2021 142.676 14.2021 142.676 13.91 143.696 13.91Z" fill="#33718E" transform="matrix(1 0 0 1.00351 1069 670.041)"/><path d="M144.678 13.91 144.678 14.2021 143.658 14.2021 143.658 13.91 144.678 13.91Z" fill="#33718E" transform="matrix(1 0 0 1.00351 1069 670.041)"/><path d="M145.66 13.91 145.66 14.2021 144.64 14.2021 144.64 13.91 145.66 13.91Z" fill="#33718E" transform="matrix(1 0 0 1.00351 1069 670.041)"/><path d="M146.642 13.91 146.642 14.2021 145.622 14.2021 145.622 13.91 146.642 13.91Z" fill="#33718E" transform="matrix(1 0 0 1.00351 1069 670.041)"/><path d="M151.392 11.6647 151.392 13.7449C151.392 13.8667 151.349 13.9722 151.259 14.0642 151.17 14.1561 151.067 14.2021 150.946 14.2021L149.937 14.2021 149.809 14.0317 149.799 14.0317C149.704 14.1453 149.588 14.2021 149.458 14.2021L148.449 14.2021 148.322 14.0317 148.311 14.0317C148.216 14.1453 148.1 14.2021 147.97 14.2021L146.606 14.2021 146.606 13.91 147.837 13.91C148.01 13.91 148.097 13.8234 148.097 13.6503L148.097 12.2977 148.416 12.2977 148.416 13.7422C148.416 13.7963 148.405 13.8532 148.384 13.9073L149.328 13.9073C149.501 13.9073 149.588 13.8207 149.588 13.6476L149.588 11.9758 149.907 11.9758 149.907 13.7422C149.907 13.7936 149.896 13.8477 149.874 13.9073L150.824 13.9073C150.997 13.9073 151.083 13.8207 151.083 13.6476L151.083 11.662 151.397 11.662Z" fill="#33718E" transform="matrix(1 0 0 1.00351 1069 670.041)"/><path d="M152.55 11.6322C152.696 11.6079 152.845 11.5943 152.991 11.5943 153.372 11.5943 153.686 11.7134 153.929 11.9487 154.151 12.1651 154.259 12.4411 154.259 12.7765L154.259 13.7477C154.259 13.8018 154.249 13.8586 154.227 13.9127L154.524 13.9127 154.524 14.2048 154.286 14.2048 154.165 14.0344 154.154 14.0344C154.154 14.0344 154.13 14.0533 154.116 14.0723 154.032 14.1615 153.929 14.2048 153.813 14.2048L151.992 14.2048 151.992 13.9127 153.68 13.9127C153.854 13.9127 153.94 13.8261 153.94 13.653L153.94 12.8414C153.94 12.5006 153.821 12.2409 153.58 12.0704 153.388 11.9271 153.142 11.8567 152.836 11.8567 152.734 11.8567 152.639 11.8649 152.55 11.8784L152.55 11.6349Z" fill="#33718E" transform="matrix(1 0 0 1.00351 1069 670.041)"/><path d="M155.501 13.91 155.501 14.2021 154.481 14.2021 154.481 13.91 155.501 13.91Z" fill="#33718E" transform="matrix(1 0 0 1.00351 1069 670.041)"/><path d="M156.781 11.6647 156.781 13.7449C156.781 13.7963 156.77 13.8504 156.748 13.91L157.051 13.91 157.051 14.2021 156.813 14.2021 156.691 14.0317 156.675 14.0317C156.58 14.1453 156.467 14.2021 156.334 14.2021L155.463 14.2021 155.463 13.91 156.207 13.91C156.296 13.91 156.361 13.8856 156.405 13.8315 156.445 13.7882 156.464 13.726 156.464 13.6503L156.464 11.6647 156.778 11.6647ZM156.626 10.4501C156.68 10.4501 156.729 10.469 156.772 10.5096 156.816 10.5501 156.835 10.5988 156.835 10.6584 156.835 10.7125 156.813 10.7611 156.772 10.8044 156.732 10.8477 156.68 10.8666 156.626 10.8666 156.567 10.8666 156.518 10.845 156.478 10.8044 156.437 10.7611 156.418 10.7125 156.418 10.6584 156.418 10.5988 156.437 10.5501 156.478 10.5096 156.518 10.469 156.567 10.4501 156.626 10.4501Z" fill="#33718E" transform="matrix(1 0 0 1.00351 1069 670.041)"/><path d="M158.387 11.7242C158.769 11.5375 159.177 11.4428 159.607 11.4428 160.148 11.4428 160.53 11.6241 160.749 11.9839 160.914 12.2571 160.998 12.6439 160.998 13.1471L160.998 13.7422C160.998 13.8667 160.949 13.9749 160.855 14.0669 160.771 14.1561 160.668 14.1994 160.552 14.1994L159.256 14.1994C159.031 14.1994 158.882 14.1913 158.809 14.1778L158.788 14.1778C158.717 14.1913 158.566 14.1994 158.331 14.1994L157.019 14.1994 157.019 13.9073 158.171 13.9073C158.079 13.8153 158.001 13.7071 157.938 13.5826 157.855 13.3987 157.811 13.2093 157.811 13.0146 157.811 12.6331 157.914 12.3437 158.12 12.1489 158.198 12.0786 158.287 12.0245 158.39 11.9839L158.39 11.7242ZM158.785 13.8829C159.042 13.8504 159.237 13.7206 159.364 13.4907 159.445 13.3473 159.486 13.1931 159.486 13.0281 159.486 12.7224 159.413 12.4979 159.264 12.3491 159.145 12.2192 158.985 12.157 158.785 12.157 158.585 12.157 158.423 12.2219 158.306 12.3491 158.171 12.5006 158.103 12.7251 158.103 13.0281 158.103 13.2039 158.147 13.3635 158.231 13.5069 158.355 13.7287 158.542 13.8532 158.788 13.8829ZM160.676 13.2256C160.676 12.6007 160.562 12.1895 160.335 11.9893 160.143 11.8189 159.883 11.735 159.556 11.735 159.291 11.735 159.007 11.7918 158.707 11.9054 158.736 11.9027 158.766 11.9 158.796 11.9 159.137 11.9 159.396 12.0191 159.567 12.2598 159.708 12.4519 159.778 12.698 159.778 13.0037 159.778 13.1904 159.735 13.3743 159.651 13.5556 159.591 13.6854 159.513 13.8018 159.413 13.9073L160.416 13.9073C160.497 13.9073 160.56 13.8883 160.603 13.8477 160.652 13.799 160.676 13.7341 160.676 13.6503L160.676 13.2256Z" fill="#33718E" transform="matrix(1 0 0 1.00351 1069 670.041)"/><path d="M167.109 11.6647 167.109 13.7449C167.109 13.8694 167.063 13.9776 166.971 14.0696 166.887 14.1588 166.784 14.2021 166.663 14.2021L163.484 14.2021C163.278 14.2021 163.097 14.1237 162.943 13.9695 162.778 13.8018 162.694 13.5962 162.694 13.3581L162.694 12.1949 162.854 12.0623 163.013 12.0623 163.013 13.3311C163.013 13.4934 163.059 13.6232 163.151 13.7233 163.262 13.8477 163.416 13.91 163.614 13.91L166.533 13.91C166.706 13.91 166.792 13.8234 166.792 13.6503L166.792 11.6647 167.106 11.6647ZM164.636 11.5159C164.696 11.5159 164.745 11.5375 164.785 11.5781 164.826 11.6214 164.845 11.6701 164.845 11.7242 164.845 11.7837 164.826 11.8324 164.785 11.873 164.745 11.9135 164.696 11.9325 164.636 11.9325 164.582 11.9325 164.534 11.9108 164.49 11.873 164.447 11.8324 164.428 11.7837 164.428 11.7242 164.428 11.6701 164.45 11.6214 164.49 11.5781 164.534 11.5348 164.582 11.5159 164.636 11.5159ZM165.183 11.5159C165.237 11.5159 165.286 11.5375 165.326 11.5781 165.367 11.6187 165.386 11.6701 165.386 11.7242 165.386 11.7837 165.364 11.8324 165.326 11.873 165.288 11.9135 165.237 11.9325 165.183 11.9325 165.123 11.9325 165.075 11.9108 165.034 11.873 164.993 11.8351 164.975 11.7837 164.975 11.7242 164.975 11.6701 164.993 11.6214 165.034 11.5781 165.075 11.5348 165.123 11.5159 165.183 11.5159Z" fill="#33718E" transform="matrix(1 0 0 1.00351 1069 670.041)"/><path d="M168.194 10.2526 168.194 14.2075 168.029 14.3401 167.874 14.3401 167.874 10.2526 168.194 10.2526Z" fill="#33718E" transform="matrix(1 0 0 1.00351 1069 670.041)"/><path d="M169.928 11.6647 169.928 14.2129C169.928 14.6728 169.776 15.0137 169.476 15.2382 169.232 15.4221 168.911 15.5141 168.51 15.5141 168.429 15.5141 168.356 15.5141 168.288 15.5087L168.129 15.3112 168.129 15.2166C168.229 15.2247 168.324 15.2274 168.415 15.2274 168.824 15.2274 169.124 15.1489 169.314 14.9947 169.511 14.8324 169.611 14.5781 169.611 14.2346L169.611 11.6647 169.925 11.6647Z" fill="#33718E" transform="matrix(1 0 0 1.00351 1069 670.041)"/><path d="M171.012 10.2526 171.012 13.6503C171.012 13.7314 171.031 13.7936 171.072 13.8369 171.115 13.8856 171.18 13.9073 171.264 13.9073L171.291 13.9073 171.291 14.1994 171.137 14.1994C171.021 14.1994 170.918 14.1561 170.834 14.0669 170.739 13.9749 170.691 13.8667 170.691 13.7422L170.691 10.2499 171.01 10.2499Z" fill="#33718E" transform="matrix(1 0 0 1.00351 1069 670.041)"/><path d="M176.039 11.6647 176.039 13.7449C176.039 13.7963 176.028 13.8504 176.006 13.91L176.309 13.91 176.309 14.2021 176.071 14.2021 175.949 14.0317 175.933 14.0317C175.838 14.1453 175.722 14.2021 175.592 14.2021L174.583 14.2021 174.456 14.0317 174.445 14.0317C174.351 14.1453 174.234 14.2021 174.104 14.2021L173.095 14.2021 172.968 14.0317 172.957 14.0317C172.863 14.1453 172.746 14.2021 172.617 14.2021L171.253 14.2021 171.253 13.91 172.484 13.91C172.657 13.91 172.744 13.8234 172.744 13.6503L172.744 12.2977 173.063 12.2977 173.063 13.7422C173.063 13.7963 173.052 13.8532 173.031 13.9073L173.975 13.9073C174.148 13.9073 174.234 13.8207 174.234 13.6476L174.234 11.9758 174.554 11.9758 174.554 13.7422C174.554 13.7936 174.543 13.8477 174.521 13.9073L175.471 13.9073C175.644 13.9073 175.73 13.8207 175.73 13.6476L175.73 11.662 176.044 11.662ZM174.121 10.4501C174.18 10.4501 174.229 10.469 174.269 10.5096 174.31 10.5501 174.329 10.5988 174.329 10.6584 174.329 10.7125 174.31 10.7611 174.269 10.8044 174.229 10.8477 174.18 10.8666 174.121 10.8666 174.067 10.8666 174.018 10.845 173.975 10.8044 173.931 10.7639 173.912 10.7125 173.912 10.6584 173.912 10.5988 173.934 10.5501 173.975 10.5096 174.018 10.469 174.067 10.4501 174.121 10.4501ZM174.394 10.0199C174.448 10.0199 174.497 10.0416 174.537 10.0794 174.578 10.12 174.597 10.1687 174.597 10.2228 174.597 10.2823 174.578 10.331 174.537 10.3716 174.497 10.4122 174.448 10.4311 174.394 10.4311 174.334 10.4311 174.286 10.4122 174.245 10.3716 174.205 10.331 174.186 10.2823 174.186 10.2228 174.186 10.1687 174.207 10.12 174.245 10.0794 174.283 10.0389 174.334 10.0199 174.394 10.0199ZM174.664 10.4501C174.724 10.4501 174.773 10.469 174.813 10.5096 174.854 10.5501 174.873 10.5988 174.873 10.6584 174.873 10.7125 174.854 10.7611 174.813 10.8044 174.773 10.8477 174.724 10.8666 174.664 10.8666 174.61 10.8666 174.562 10.845 174.518 10.8044 174.475 10.7611 174.453 10.7125 174.453 10.6584 174.453 10.5988 174.475 10.5501 174.518 10.5096 174.562 10.469 174.61 10.4501 174.664 10.4501Z" fill="#33718E" transform="matrix(1 0 0 1.00351 1069 670.041)"/><path d="M177.589 11.6647 177.589 13.7449C177.589 13.7963 177.578 13.8504 177.556 13.91L177.859 13.91 177.859 14.2021 177.621 14.2021 177.499 14.0317 177.483 14.0317C177.389 14.1453 177.275 14.2021 177.142 14.2021L176.271 14.2021 176.271 13.91 177.015 13.91C177.104 13.91 177.169 13.8856 177.213 13.8315 177.253 13.7882 177.272 13.726 177.272 13.6503L177.272 11.6647 177.586 11.6647ZM176.888 10.4501C176.948 10.4501 176.996 10.469 177.037 10.5096 177.077 10.5501 177.096 10.5988 177.096 10.6584 177.096 10.7125 177.075 10.7611 177.037 10.8044 176.999 10.8477 176.948 10.8666 176.888 10.8666 176.834 10.8666 176.785 10.845 176.745 10.8044 176.704 10.7639 176.685 10.7125 176.685 10.6584 176.685 10.5988 176.704 10.5501 176.745 10.5096 176.785 10.469 176.834 10.4501 176.888 10.4501ZM177.434 10.4501C177.489 10.4501 177.537 10.469 177.581 10.5096 177.624 10.5501 177.643 10.5988 177.643 10.6584 177.643 10.7125 177.621 10.7611 177.581 10.8044 177.54 10.8477 177.489 10.8666 177.434 10.8666 177.375 10.8666 177.326 10.845 177.286 10.8044 177.245 10.7611 177.226 10.7125 177.226 10.6584 177.226 10.5988 177.245 10.5501 177.286 10.5096 177.326 10.469 177.375 10.4501 177.434 10.4501Z" fill="#33718E" transform="matrix(1 0 0 1.00351 1069 670.041)"/><path d="M178.841 13.91 178.841 14.2021 177.821 14.2021 177.821 13.91 178.841 13.91Z" fill="#33718E" transform="matrix(1 0 0 1.00351 1069 670.041)"/><path d="M179.823 13.91 179.823 14.2021 178.803 14.2021 178.803 13.91 179.823 13.91Z" fill="#33718E" transform="matrix(1 0 0 1.00351 1069 670.041)"/><path d="M180.805 13.91 180.805 14.2021 179.785 14.2021 179.785 13.91 180.805 13.91Z" fill="#33718E" transform="matrix(1 0 0 1.00351 1069 670.041)"/><path d="M181.787 13.91 181.787 14.2021 180.767 14.2021 180.767 13.91 181.787 13.91Z" fill="#33718E" transform="matrix(1 0 0 1.00351 1069 670.041)"/><path d="M182.769 13.91 182.769 14.2021 181.749 14.2021 181.749 13.91 182.769 13.91Z" fill="#33718E" transform="matrix(1 0 0 1.00351 1069 670.041)"/><path d="M183.751 13.91 183.751 14.2021 182.731 14.2021 182.731 13.91 183.751 13.91Z" fill="#33718E" transform="matrix(1 0 0 1.00351 1069 670.041)"/><path d="M188.501 11.6647 188.501 13.7449C188.501 13.8667 188.458 13.9722 188.369 14.0642 188.28 14.1561 188.177 14.2021 188.055 14.2021L187.046 14.2021 186.919 14.0317 186.908 14.0317C186.813 14.1453 186.697 14.2021 186.567 14.2021L185.558 14.2021 185.431 14.0317 185.42 14.0317C185.325 14.1453 185.209 14.2021 185.079 14.2021L183.716 14.2021 183.716 13.91 184.947 13.91C185.12 13.91 185.206 13.8234 185.206 13.6503L185.206 12.2977 185.526 12.2977 185.526 13.7422C185.526 13.7963 185.515 13.8532 185.493 13.9073L186.437 13.9073C186.61 13.9073 186.697 13.8207 186.697 13.6476L186.697 11.9758 187.016 11.9758 187.016 13.7422C187.016 13.7936 187.005 13.8477 186.984 13.9073L187.933 13.9073C188.106 13.9073 188.193 13.8207 188.193 13.6476L188.193 11.662 188.507 11.662Z" fill="#33718E" transform="matrix(1 0 0 1.00351 1069 670.041)"/><path d="M189.124 15.6845C189.04 15.5818 188.996 15.4519 188.996 15.2923 188.996 15.1679 189.037 15.0624 189.121 14.9785 189.205 14.8946 189.307 14.8514 189.432 14.8514 189.521 14.8514 189.61 14.8676 189.702 14.9001L189.702 15.0651C189.629 15.0407 189.559 15.0272 189.494 15.0272 189.289 15.0272 189.186 15.1327 189.186 15.3464 189.186 15.4303 189.213 15.506 189.27 15.5736 189.34 15.6467 189.426 15.6845 189.529 15.6845L189.884 15.6845 189.884 15.7441 189.794 15.8604 188.891 15.8604 188.891 15.6845 189.129 15.6845ZM189.581 10.2526 189.581 14.2075 189.421 14.3401 189.267 14.3401 189.267 10.2526 189.581 10.2526Z" fill="#33718E" transform="matrix(1 0 0 1.00351 1069 670.041)"/><path d="M76.8078 14.4239C76.4561 14.7756 76.0124 14.9487 75.5471 14.9487 74.3515 14.9487 73.7536 14.148 73.7482 13.1823 73.7428 12.2382 74.3461 11.3833 75.5471 11.3833 76.007 11.3833 76.4723 11.5456 76.7726 11.9027L76.5589 12.1164C76.2775 11.8405 75.9151 11.6998 75.5445 11.6998 74.5814 11.6998 74.0918 12.4113 74.0918 13.1796 74.0918 13.9911 74.5814 14.6295 75.5445 14.6295 75.9151 14.6295 76.3073 14.4808 76.5832 14.2048L76.8051 14.4266Z" fill="#33718E" transform="matrix(1 0 0 1.00351 1069 670.041)"/><path d="M80.6734 13.1715C80.668 14.075 80.0945 14.9569 78.9232 14.9569 77.7519 14.9569 77.1675 14.0777 77.1675 13.166 77.1675 12.1922 77.8006 11.3698 78.9232 11.3698 80.0945 11.3752 80.6788 12.2463 80.6734 13.1687ZM78.9205 14.6322C79.8646 14.6322 80.3191 13.9154 80.3245 13.1742 80.3245 12.3978 79.8646 11.7053 78.9205 11.6998 77.9899 11.6998 77.5003 12.3572 77.5111 13.1742 77.5219 13.9316 77.9764 14.6322 78.9205 14.6322Z" fill="#33718E" transform="matrix(1 0 0 1.00351 1069 670.041)"/><path d="M83.8682 14.24 83.8493 13.093 83.8493 11.432 84.1956 11.432 84.1956 14.8946 83.9873 14.8946 81.7474 12.111 81.7582 13.1336 81.7582 14.8946 81.412 14.8946 81.412 11.432 81.6284 11.432 83.8682 14.24Z" fill="#33718E" transform="matrix(1 0 0 1.00351 1069 670.041)"/><path d="M87.3173 12.1435C87.1144 11.8162 86.6897 11.708 86.3245 11.7025 85.8998 11.7025 85.3507 11.827 85.3507 12.3356 85.3507 12.7413 85.797 12.8495 86.3354 12.9442 87.0171 13.0632 87.7096 13.2147 87.7096 13.9532 87.7042 14.735 86.9521 14.946 86.3245 14.946 85.7402 14.946 85.1478 14.7323 84.88 14.1805L85.183 14.0182C85.421 14.4618 85.9052 14.616 86.3245 14.616 86.7438 14.616 87.3579 14.5024 87.3579 13.9478 87.3633 13.4771 86.8385 13.3581 86.3002 13.2661 85.6482 13.1525 85.0044 13.0091 85.0044 12.3356 84.9936 11.6079 85.7375 11.3752 86.3191 11.3752 86.7925 11.3752 87.3038 11.5051 87.6095 11.9785L87.3173 12.1408Z" fill="#33718E" transform="matrix(1 0 0 1.00351 1069 670.041)"/><path d="M91.1289 11.432 91.1289 13.5448C91.1289 14.4808 90.5148 14.9298 89.7655 14.9298 89.0162 14.9298 88.3805 14.4808 88.3805 13.5448L88.3805 11.432 88.7267 11.432 88.7267 13.5448C88.7267 14.2021 89.1758 14.6079 89.7655 14.6079 90.2903 14.6079 90.7854 14.267 90.7854 13.5448L90.7854 11.432 91.1316 11.432Z" fill="#33718E" transform="matrix(1 0 0 1.00351 1069 670.041)"/><path d="M92.3976 11.432 92.3976 14.5673 94.321 14.5673 94.321 14.8946 92.0514 14.8946 92.0514 11.432 92.3976 11.432Z" fill="#33718E" transform="matrix(1 0 0 1.00351 1069 670.041)"/><path d="M95.211 11.7594 93.9883 11.7594 93.9883 11.432 96.7773 11.432 96.7773 11.7594 95.5546 11.7594 95.5546 14.8946 95.2083 14.8946 95.2083 11.7594Z" fill="#33718E" transform="matrix(1 0 0 1.00351 1069 670.041)"/><path d="M97.34 14.8946 97.34 11.432 97.6862 11.432 97.6862 14.8946 97.34 14.8946Z" fill="#33718E" transform="matrix(1 0 0 1.00351 1069 670.041)"/><path d="M101.103 14.24 101.084 13.093 101.084 11.432 101.43 11.432 101.43 14.8946 101.222 14.8946 98.982 12.111 98.9928 13.1336 98.9928 14.8946 98.6466 14.8946 98.6466 11.432 98.863 11.432 101.103 14.24Z" fill="#33718E" transform="matrix(1 0 0 1.00351 1069 670.041)"/><path d="M105.031 12.1137C104.749 11.8324 104.338 11.6971 103.968 11.6971 103.024 11.6971 102.515 12.4005 102.518 13.1769 102.518 13.9343 102.996 14.6052 103.968 14.6052 104.314 14.6052 104.674 14.4862 104.96 14.2292L104.96 13.3527 103.827 13.3527 103.827 13.0308 105.29 13.0308 105.29 14.3698C104.933 14.735 104.503 14.9379 103.965 14.9379 102.758 14.9379 102.169 14.1128 102.169 13.1769 102.163 12.1191 102.872 11.3671 103.965 11.3671 104.425 11.3671 104.885 11.5402 105.236 11.8865L105.028 12.1083Z" fill="#33718E" transform="matrix(1 0 0 1.00351 1069 670.041)"/><path d="M109.859 14.8946 107.376 14.8946 107.376 11.432 109.813 11.432 109.813 11.7594 107.722 11.7594 107.722 13.001 109.719 13.001 109.719 13.3229 107.722 13.3229 107.722 14.57 109.859 14.57 109.859 14.8973Z" fill="#33718E" transform="matrix(1 0 0 1.00351 1069 670.041)"/><path d="M113.076 14.24 113.057 13.093 113.057 11.432 113.403 11.432 113.403 14.8946 113.195 14.8946 110.955 12.111 110.966 13.1336 110.966 14.8946 110.62 14.8946 110.62 11.432 110.836 11.432 113.076 14.24Z" fill="#33718E" transform="matrix(1 0 0 1.00351 1069 670.041)"/><path d="M117.001 12.1137C116.72 11.8324 116.309 11.6971 115.938 11.6971 114.994 11.6971 114.485 12.4005 114.488 13.1769 114.488 13.9343 114.967 14.6052 115.938 14.6052 116.284 14.6052 116.644 14.4862 116.931 14.2292L116.931 13.3527 115.797 13.3527 115.797 13.0308 117.261 13.0308 117.261 14.3698C116.904 14.735 116.474 14.9379 115.935 14.9379 114.729 14.9379 114.139 14.1128 114.139 13.1769 114.134 12.1191 114.842 11.3671 115.935 11.3671 116.395 11.3671 116.855 11.5402 117.207 11.8865L116.998 12.1083Z" fill="#33718E" transform="matrix(1 0 0 1.00351 1069 670.041)"/><path d="M118.056 14.8946 118.056 11.432 118.402 11.432 118.402 14.8946 118.056 14.8946Z" fill="#33718E" transform="matrix(1 0 0 1.00351 1069 670.041)"/><path d="M121.822 14.24 121.803 13.093 121.803 11.432 122.149 11.432 122.149 14.8946 121.941 14.8946 119.701 12.111 119.712 13.1336 119.712 14.8946 119.365 14.8946 119.365 11.432 119.582 11.432 121.822 14.24Z" fill="#33718E" transform="matrix(1 0 0 1.00351 1069 670.041)"/><path d="M125.59 14.8946 123.107 14.8946 123.107 11.432 125.544 11.432 125.544 11.7594 123.453 11.7594 123.453 13.001 125.452 13.001 125.452 13.3229 123.453 13.3229 123.453 14.57 125.59 14.57 125.59 14.8973Z" fill="#33718E" transform="matrix(1 0 0 1.00351 1069 670.041)"/><path d="M128.831 14.8946 126.347 14.8946 126.347 11.432 128.785 11.432 128.785 11.7594 126.694 11.7594 126.694 13.001 128.693 13.001 128.693 13.3229 126.694 13.3229 126.694 14.57 128.831 14.57 128.831 14.8973Z" fill="#33718E" transform="matrix(1 0 0 1.00351 1069 670.041)"/><path d="M132.426 14.8946 131.977 14.8946 130.83 13.6178 129.935 13.6178 129.935 14.8946 129.588 14.8946 129.588 11.432 131.141 11.432C131.912 11.432 132.283 11.946 132.288 12.5303 132.293 13.0687 131.977 13.5583 131.244 13.5935L132.426 14.8946ZM129.935 11.7594 129.935 13.2932 131.122 13.2932C131.677 13.2932 131.944 12.9659 131.944 12.5303 131.944 12.0948 131.677 11.7594 131.144 11.7594L129.937 11.7594Z" fill="#33718E" transform="matrix(1 0 0 1.00351 1069 670.041)"/><path d="M135.253 12.1435C135.05 11.8162 134.625 11.708 134.26 11.7025 133.835 11.7025 133.286 11.827 133.286 12.3356 133.286 12.7413 133.73 12.8495 134.271 12.9442 134.953 13.0632 135.645 13.2147 135.645 13.9532 135.64 14.735 134.888 14.946 134.26 14.946 133.676 14.946 133.083 14.7323 132.816 14.1805L133.118 14.0182C133.357 14.4618 133.841 14.616 134.26 14.616 134.679 14.616 135.293 14.5024 135.293 13.9478 135.299 13.4771 134.774 13.3581 134.236 13.2661 133.584 13.1525 132.94 13.0091 132.94 12.3356 132.929 11.6079 133.673 11.3752 134.255 11.3752 134.728 11.3752 135.239 11.5051 135.545 11.9785L135.253 12.1408Z" fill="#33718E" transform="matrix(1 0 0 1.00351 1069 670.041)"/><path d="M78.0873 20.5268 75.0007 20.5268 74.4543 21.7576 73.8916 21.7576 76.2803 16.4366 76.8132 16.4366 79.2018 21.7576 78.6392 21.7576 78.0927 20.5268ZM75.2117 20.0399 77.8736 20.0399 76.5427 17.0128 75.2117 20.0399Z" fill="#004D71" transform="matrix(1 0 0 1.00351 1069 670.041)"/><path d="M83.8493 21.7576 83.8493 19.4014 80.6248 19.4014 80.6248 21.7576 80.0918 21.7576 80.0918 16.4366 80.6248 16.4366 80.6248 18.901 83.8493 18.901 83.8493 16.4366 84.3822 16.4366 84.3822 21.7576 83.8493 21.7576Z" fill="#004D71" transform="matrix(1 0 0 1.00351 1069 670.041)"/><path d="M90.5175 17.2184 88.5319 20.1373 88.3805 20.1373 86.3895 17.1805 86.3895 21.7576 85.8565 21.7576 85.8565 16.4366 86.5112 16.4366 88.4589 19.3717 90.3823 16.4366 91.0505 16.4366 91.0505 21.7576 90.5175 21.7576 90.5175 17.2184Z" fill="#004D71" transform="matrix(1 0 0 1.00351 1069 670.041)"/><path d="M96.1443 20.5268 93.0577 20.5268 92.5113 21.7576 91.9486 21.7576 94.3372 16.4366 94.8702 16.4366 97.2588 21.7576 96.6961 21.7576 96.1497 20.5268ZM93.2714 20.0399 95.9333 20.0399 94.6023 17.0128 93.2714 20.0399Z" fill="#004D71" transform="matrix(1 0 0 1.00351 1069 670.041)"/><path d="M100.029 16.4366C101.831 16.4366 102.699 17.7297 102.699 19.0444 102.699 20.3591 101.893 21.7576 100.029 21.7576L98.1515 21.7576 98.1515 16.4366 100.029 16.4366ZM98.6844 21.2626 100.029 21.2626C101.511 21.2626 102.182 20.1075 102.158 19.0335 102.136 18.0002 101.465 16.9343 100.029 16.9343L98.6844 16.9343 98.6844 21.2599Z" fill="#004D71" transform="matrix(1 0 0 1.00351 1069 670.041)"/><path d="M109.208 20.5268 106.121 20.5268 105.574 21.7576 105.012 21.7576 107.4 16.4366 107.933 16.4366 110.322 21.7576 109.759 21.7576 109.213 20.5268ZM106.332 20.0399 108.994 20.0399 107.663 17.0128 106.332 20.0399Z" fill="#004D71" transform="matrix(1 0 0 1.00351 1069 670.041)"/><path d="M111.748 16.4366 111.748 21.2572 114.704 21.2572 114.704 21.7604 111.215 21.7604 111.215 16.4393 111.748 16.4393Z" fill="#004D71" transform="matrix(1 0 0 1.00351 1069 670.041)"/><path d="M119.936 21.7576 119.244 21.7576 117.48 19.7964 116.103 19.7964 116.103 21.7576 115.57 21.7576 115.57 16.4366 117.959 16.4366C119.144 16.4366 119.714 17.2265 119.723 18.1246 119.731 18.9524 119.244 19.7071 118.118 19.7585L119.936 21.7576ZM116.103 16.937 116.103 19.2932 117.929 19.2932C118.781 19.2932 119.192 18.7901 119.192 18.1219 119.192 17.4537 118.781 16.937 117.961 16.937L116.106 16.937Z" fill="#004D71" transform="matrix(1 0 0 1.00351 1069 670.041)"/><path d="M124.573 20.5268 121.486 20.5268 120.94 21.7576 120.377 21.7576 122.766 16.4366 123.299 16.4366 125.687 21.7576 125.125 21.7576 124.578 20.5268ZM121.7 20.0399 124.362 20.0399 123.031 17.0128 121.7 20.0399Z" fill="#004D71" transform="matrix(1 0 0 1.00351 1069 670.041)"/><path d="M129.788 17.5295C129.477 17.0263 128.823 16.8613 128.26 16.8532 127.605 16.8532 126.761 17.0425 126.761 17.827 126.761 18.4492 127.446 18.6169 128.274 18.763 129.323 18.9443 130.386 19.1823 130.386 20.3131 130.378 21.5142 129.223 21.8415 128.257 21.8415 127.359 21.8415 126.448 21.5142 126.036 20.6621L126.499 20.4105C126.864 21.0949 127.608 21.3302 128.255 21.3302 128.901 21.3302 129.845 21.1544 129.845 20.305 129.853 19.5827 129.047 19.4014 128.217 19.2554 127.213 19.0795 126.226 18.8604 126.226 17.827 126.209 16.7098 127.351 16.3527 128.249 16.3527 128.98 16.3527 129.761 16.5502 130.235 17.2806L129.786 17.5322Z" fill="#004D71" transform="matrix(1 0 0 1.00351 1069 670.041)"/><path d="M135.242 21.7576 135.242 19.4014 132.017 19.4014 132.017 21.7576 131.485 21.7576 131.485 16.4366 132.017 16.4366 132.017 18.901 135.242 18.901 135.242 16.4366 135.775 16.4366 135.775 21.7576 135.242 21.7576Z" fill="#004D71" transform="matrix(1 0 0 1.00351 1069 670.041)"/><path d="M141.066 21.7576 137.249 21.7576 137.249 16.4366 140.999 16.4366 140.999 16.9397 137.782 16.9397 137.782 18.8469 140.855 18.8469 140.855 19.3419 137.782 19.3419 137.782 21.2572 141.066 21.2572 141.066 21.7604Z" fill="#004D71" transform="matrix(1 0 0 1.00351 1069 670.041)"/><path d="M144.107 16.4366C145.909 16.4366 146.777 17.7297 146.777 19.0444 146.777 20.3591 145.971 21.7576 144.107 21.7576L142.229 21.7576 142.229 16.4366 144.107 16.4366ZM142.76 21.2626 144.107 21.2626C145.589 21.2626 146.257 20.1075 146.236 19.0335 146.214 18.0002 145.543 16.9343 144.107 16.9343L142.76 16.9343 142.76 21.2599Z" fill="#004D71" transform="matrix(1 0 0 1.00351 1069 670.041)"/><path d="M153.283 20.5268 150.196 20.5268 149.65 21.7576 149.087 21.7576 151.476 16.4366 152.009 16.4366 154.397 21.7576 153.835 21.7576 153.288 20.5268ZM150.41 20.0399 153.072 20.0399 151.741 17.0128 150.41 20.0399Z" fill="#004D71" transform="matrix(1 0 0 1.00351 1069 670.041)"/><path d="M155.823 16.4366 155.823 21.2572 158.78 21.2572 158.78 21.7604 155.29 21.7604 155.29 16.4393 155.823 16.4393Z" fill="#004D71" transform="matrix(1 0 0 1.00351 1069 670.041)"/><path d="M163.403 21.7576 163.403 19.4014 160.178 19.4014 160.178 21.7576 159.645 21.7576 159.645 16.4366 160.178 16.4366 160.178 18.901 163.403 18.901 163.403 16.4366 163.936 16.4366 163.936 21.7576 163.403 21.7576Z" fill="#004D71" transform="matrix(1 0 0 1.00351 1069 670.041)"/><path d="M169.579 16.4366 169.579 19.6828C169.579 21.1192 168.635 21.8117 167.479 21.8117 166.324 21.8117 165.351 21.1192 165.351 19.6828L165.351 16.4366 165.883 16.4366 165.883 19.6828C165.883 20.6945 166.576 21.3167 167.479 21.3167 168.286 21.3167 169.046 20.7919 169.046 19.6828L169.046 16.4366 169.579 16.4366Z" fill="#004D71" transform="matrix(1 0 0 1.00351 1069 670.041)"/><path d="M175.652 17.2184 173.666 20.1373 173.515 20.1373 171.524 17.1805 171.524 21.7576 170.991 21.7576 170.991 16.4366 171.645 16.4366 173.593 19.3717 175.517 16.4366 176.185 16.4366 176.185 21.7576 175.652 21.7576 175.652 17.2184Z" fill="#004D71" transform="matrix(1 0 0 1.00351 1069 670.041)"/><path d="M181.279 20.5268 178.192 20.5268 177.646 21.7576 177.083 21.7576 179.471 16.4366 180.004 16.4366 182.393 21.7576 181.83 21.7576 181.284 20.5268ZM178.406 20.0399 181.068 20.0399 179.737 17.0128 178.406 20.0399Z" fill="#004D71" transform="matrix(1 0 0 1.00351 1069 670.041)"/><path d="M183.286 21.7576 183.286 16.4366 183.819 16.4366 183.819 21.7576 183.286 21.7576Z" fill="#004D71" transform="matrix(1 0 0 1.00351 1069 670.041)"/><path d="M187.173 16.4366C188.975 16.4366 189.843 17.7297 189.843 19.0444 189.843 20.3591 189.037 21.7576 187.173 21.7576L185.296 21.7576 185.296 16.4366 187.173 16.4366ZM185.826 21.2626 187.173 21.2626C188.656 21.2626 189.324 20.1075 189.302 19.0335 189.28 18.0002 188.61 16.9343 187.173 16.9343L185.826 16.9343 185.826 21.2599Z" fill="#004D71" transform="matrix(1 0 0 1.00351 1069 670.041)"/></g></svg>