<?xml version="1.0" encoding="UTF-8"?>
<svg id="Layer_1" data-name="Layer 1" xmlns="http://www.w3.org/2000/svg" viewBox="0 0 175.73 177.67">
  <defs>
    <style>
      .cls-1 {
        fill: #74bd5e;
      }

      .cls-1, .cls-2, .cls-3 {
        fill-rule: evenodd;
      }

      .cls-2 {
        fill: #21753c;
      }

      .cls-3 {
        fill: #1f743b;
      }
    </style>
  </defs>
  <path class="cls-3" d="M150.7,15.11s5.6,7.21,4.77,19.07c-.83,11.95-7.89,15.6,7.71,32.66,0,0-4.96-7.94-1.29-20.98,3.67-13.04.18-23.36-11.2-30.74"/>
  <path class="cls-1" d="M138.02,6.71s6.02,9.4,5.56,17.52c-.46,8.13-1.82,11.6-2.37,14.51-1.27,6.12.82,11.32.82,11.32,0,0-3.47.45-8.75-2.19-5.29-2.74-6.84-6.75-6.84-6.75,0,0-2.74,5.84,0,11.22,2.73,5.38,11.58,13.87,11.31,16.24,0,0-3.47,7.94-14.05,10.5-10.58,2.55-12.85-2.37-12.85-2.37,0,0,5.92,15.79,17.24,12.77,11.31-3.01,11.13-12.77,10.67-20.9,0,0,2.09-4.66,1.46-7.94,0,0,4.1,0,7.02-3.46,3.1-3.74,1.74-4.47,2.73-11.14,1-6.66,5.93-12.41,0-25.64-4.47-9.76-11.94-13.69-11.94-13.69"/>
  <path class="cls-3" d="M111.83,41.03s-1.28,9.39-.92,12.13c.36,2.73,3.93,6.75,5.2,7.66,1.28.92,4.75,5.02,5.57,6.84,0,0,2.01-2.83,2.01-7.11,0-1.82,0-3.93-1.09-6.2-2.65-5.1-1.92-2.83-10.76-13.32"/>
  <path class="cls-1" d="M121.53,67.5s-5.83-3.74-10.75-4.28c-4.92-.54-14.94,4.74-16.95,5.01,0,0-.36-6.29,1.82-11.12,2.28-5.11,6.74-16.77,2.1-30.81,0,0-3.92-9.94-12.21-15.04,0,0,6.57,11.03,5.29,24.34-1.28,13.31-7.66,17.23-.54,30.45,6.47,12.03,15.04,8.93,15.04,8.93,0,0,3.19-.92,5.56-2.65,3.92-2.91,6.93-3.55,10.66-4.83"/>
  <path class="cls-1" d="M52.85,58.93s-1-8.38,4.36-13.2c5-4.46,8.73-4.65,13.46-9.84,4.73-5.19,4.99-7.1,4.99-7.1,0,0,1.73,8.01-.54,13.2-2.28,5.19-10.55,13.3-10.55,13.3l-10.55,9.02s-.73-3.56-1.18-5.37"/>
  <path class="cls-1" d="M39.52,48.23s1.46,2.01,6.72,4.75c5.27,2.83,7.18,7.67,7.36,12.51.18,4.84-1.46,9.86-1.46,9.86,0,0-2.64-4.02-6.36-6.76-4.36-3.2-7.99-8.58-7.18-15.43.28-3.11.91-4.93.91-4.93"/>
  <path class="cls-1" d="M52.13,75.24s-7.19,10.13-19.49,9.85c-12.29-.28-16.57-11.68-16.57-11.68,0,0-3.1-6.02-6.37-7.67,0,0,3.19,3.47,4.1,13.14.91,9.67,6.1,20.52,19.39,21.16,13.29.64,20.3-18.33,18.94-24.81"/>
  <path class="cls-3" d="M110.06,92.83s1.46-3.28,1.55-6.47l11.85,7.02-5.29,12.21-9.84-4.56-2.28,4.56-11.39-5.1s3.46-3.37,5.19-14.22l10.21,6.57h0Z"/>
  <path class="cls-3" d="M50.87,23.27s-.18,7.74-4.58,14.13l11.09,4.83,5.59-11.85-12.1-7.11h0Z"/>
  <path class="cls-3" d="M52.05,75.41s12.52,1.83,21.2-6.3c7.5-7.03,8.32-18.09,8.32-18.09,0,0,1.37-7.68,6.12-12.52,0,0-6.12,3.2-13.52,3.66-7.41.46-18.1,5.12-20.47,16.17,0,0-.36,1.73-.28,7.3,0,5.21-1.37,9.77-1.37,9.77"/>
  <path class="cls-1" d="M17.8,155.47h3.01v4.29c-.45.28-1,.45-1.55.64-.55.18-1.1.18-1.64.18-.73,0-1.46-.18-2.1-.46-.64-.27-1.19-.73-1.64-1.19-.46-.55-.82-1.19-1.1-1.83-.27-.73-.36-1.46-.36-2.37,0-.82.09-1.64.36-2.37.28-.73.64-1.37,1.1-1.83.46-.55,1-.91,1.64-1.19.64-.28,1.28-.46,2.01-.46.64,0,1.28.18,1.91.46.64.27,1.1.64,1.55,1.19l1.1-1.27c-.64-.64-1.28-1.19-2.1-1.46-.73-.28-1.55-.46-2.37-.46-.92,0-1.82.18-2.65.55-.82.36-1.55.82-2.19,1.46-.64.64-1.09,1.46-1.46,2.37-.36.92-.55,1.92-.55,3.01s.18,2.1.46,3.01c.36.91.82,1.73,1.37,2.37.64.64,1.28,1.19,2.1,1.55.82.36,1.73.55,2.74.55.82,0,1.64-.09,2.46-.28.82-.18,1.56-.55,2.28-1v-6.93h-4.38v1.46h0ZM35.41,154.1c.55-.64.82-1.46.82-2.47,0-.91-.18-1.55-.46-2.1-.28-.55-.64-.91-1.19-1.19-.45-.27-1-.46-1.64-.55-.64-.09-1.19-.09-1.82-.09h-3.1v14.06h1.46v-6.3h1.91l3.37,6.3h1.82l-3.56-6.48c1.1-.09,1.82-.55,2.37-1.19h0ZM30.85,153.92h-1.37v-4.66h2.19c.36,0,.73,0,1.1.09.36.09.73.18,1,.36.28.18.55.36.73.73.18.28.28.73.28,1.19,0,.55-.09,1-.36,1.37-.27.28-.55.55-.91.73-.36.18-.82.28-1.27.28-.55-.09-.92-.09-1.37-.09h-.01ZM42.98,155.28h6.02v-1.55h-6.02v-4.47h6.38v-1.55h-7.94v14.15h8.3v-1.55h-6.75v-5.02h0ZM56.11,155.28h5.93v-1.55h-5.93v-4.47h6.38v-1.55h-7.94v14.15h8.3v-1.55h-6.75v-5.02h0ZM76.9,159.48l-7.3-11.77h-1.92v14.15h1.56v-11.78l7.3,11.78h1.91v-14.15h-1.55v11.77h0ZM98.71,154.1c.55-.64.82-1.46.82-2.47,0-.91-.18-1.55-.46-2.1-.28-.55-.64-.91-1.19-1.19-.46-.27-1-.46-1.64-.55-.64-.09-1.19-.09-1.82-.09h-3.19v14.06h1.55v-6.3h1.91l3.37,6.3h1.82l-3.56-6.48c1.09-.09,1.82-.55,2.37-1.19h0ZM94.14,153.92h-1.37v-4.66h2.09c.37,0,.73,0,1.1.09.36.09.73.18,1,.36.28.18.55.36.73.73.18.28.28.73.28,1.19,0,.55-.09,1-.36,1.37-.28.28-.55.55-.91.73-.36.18-.82.28-1.28.28-.46-.09-.92-.09-1.28-.09h0ZM115.67,154.1l-3.56-6.39h-1.91l4.75,8.03v6.11h1.46v-6.11l4.74-8.03h-1.82l-3.65,6.39h0ZM127.89,147.71l-5.56,14.06h1.73l1.28-3.47h6.3l1.28,3.47h1.73l-5.38-14.06h-1.37ZM125.88,156.83l2.64-6.93,2.46,6.93h-5.1ZM148.6,150.63c-.36-.55-.73-1-1.1-1.37-.46-.36-.82-.64-1.28-.92-.46-.27-.91-.36-1.37-.55-.46-.09-.91-.18-1.28-.18h-4.83v14.06h4.83c.46,0,.82-.09,1.28-.18.46-.09.92-.28,1.37-.55.46-.27.91-.55,1.28-.91.46-.36.82-.82,1.1-1.37.36-.55.55-1.1.73-1.83.18-.64.28-1.46.28-2.28s-.09-1.64-.28-2.28c-.18-.46-.46-1.1-.73-1.64h0ZM147.68,157.3c-.28.73-.64,1.27-1.09,1.73-.46.46-1,.73-1.64,1-.64.18-1.28.28-2.01.28h-2.83v-10.95h2.83c.73,0,1.37.09,2.01.27.64.18,1.19.55,1.64,1,.46.45.82,1,1.09,1.74.28.73.37,1.55.37,2.47s-.18,1.73-.37,2.47h0ZM162.82,147.71v6.02h-6.75v-6.02h-1.46v14.15h1.46v-6.58h6.75v6.58h1.55v-14.15h-1.55ZM104.73,147.71h-1.46v1h1.46v12.14h-1.46v1h4.47v-1h-1.46v-12.14h1.46v-1h-3.01Z"/>
  <path class="cls-2" d="M18.61,130.13c-2.55.36-4.01-1.09-4.19-2.27-.18-1.18.73-2.9,2.37-3.09.82-.09,1.74-.09,2.19-.09v-1.9c-.45,0-1.37,0-2.19.09-3.65.54-4.93,3.54-4.65,5.45.18,1.09,1.18,2.36,2.1,2.64-.73,0-1.91.09-3.1.28l.28,1.82,9.93-1.36-.28-1.82-2.46.27h0ZM27.63,114.59h-2.37v18.26h2.37v-18.26h0ZM50.59,117.95c.82,0,1.46-.64,1.46-1.36,0-.82-.64-1.46-1.46-1.46s-1.37.64-1.37,1.46c0,.72.64,1.36,1.37,1.36h0ZM64.35,117.95c.82,0,1.46-.64,1.46-1.36,0-.82-.64-1.46-1.46-1.46s-1.37.64-1.37,1.46c0,.72.54,1.36,1.37,1.36h0ZM77.02,131.03h-6.11c-.91-1.27-1.18-2.54-1.18-2.54-.18-.72-.28-1.18-.36-1.64-.09-.54-.18-1.09-.28-1.64,0-.54-.09-1.09-.28-1.64-.18-.54-.36-1-.73-1.46-.36-.46-.82-.82-1.28-1.09-.54-.27-1.18-.46-2.01-.46-.36,0-.64,0-1,.09-.36.09-.73.09-1.1.18-.36.09-.64.18-1,.27-.28.09-.54.18-.73.28l.54,2c.45-.18.91-.36,1.46-.46.54-.09.91-.18,1.28-.18.82,0,1.46.18,1.91.64.46.46.82,1.27.92,2.36.18,1,.36,1.82.46,2.36.18.91.82,2.27,1.18,3h-12.76c.09-1.36.18-2.82.18-4.18,0-4-1.64-6.45-5.1-6.45-2.91,0-5.83,2.18-7.1,5.91.18-1.46.27-3.27.27-4.64v-1h-2.37v10.26h-6.2v-10.26h-2.37v12.54c0,3.36-1.28,4.45-3.47,4.45-1,0-1.82-.18-2.64-.46l-.28,2c.82.18,1.74.36,2.73.36,4.65,0,6.01-2.82,6.01-6.54v-.09h43.75v-18.26h-2.37v16.26h0ZM53.33,131.03h-9.29c.45-4.18,3.01-8.63,6.47-8.63,2.28,0,3.01,1.9,3.01,4.72,0,1.27,0,2.64-.18,3.91h0ZM84.32,132.85h2.37v-18.26h-2.37v18.26h0ZM117.3,120.41c-2.91,0-5.83,2.18-7.11,5.9.18-1.46.28-3.27.28-4.64v-1h-2.37v10.99c0,4-1.74,5.27-4.29,5.27-2.09,0-4.29-1.18-4.29-5.54,0-1.73.28-3.45.73-5.18l-2.46.46c-.46,1.55-.64,3.27-.64,4.91,0,5.36,2.91,7.26,6.47,7.26,3.83,0,6.47-1.82,6.74-6h11.67c.18-2,.36-4.08.36-6.08-.09-3.91-1.73-6.36-5.11-6.36h.01ZM119.67,131.04h-9.3c.46-4.18,3.01-8.63,6.47-8.63,2.27,0,3.01,1.91,3.01,4.72,0,1.27,0,2.64-.18,3.91h0ZM116.93,117.95c.82,0,1.46-.64,1.46-1.36,0-.82-.64-1.46-1.46-1.46s-1.37.64-1.37,1.46c0,.72.64,1.36,1.37,1.36h0ZM133.89,135.4c-.82,0-1.37.64-1.37,1.36,0,.82.64,1.36,1.37,1.36s1.37-.64,1.37-1.36-.64-1.36-1.37-1.36h0ZM136.9,131.03h-7.66v-16.45h-2.46v18.35h12.58v-12.17h-2.46v10.26h0ZM137.72,135.4c-.82,0-1.37.64-1.37,1.36,0,.82.64,1.36,1.37,1.36s1.37-.64,1.37-1.36-.54-1.36-1.37-1.36h0ZM154.48,131.03h-6.1v-10.26h-2.37v12.54c0,3.36-1.28,4.45-3.47,4.45-1,0-1.82-.18-2.64-.46l-.28,2c.82.18,1.73.36,2.74.36,4.65,0,6.01-2.82,6.01-6.54v-.09h8.48v-18.26h-2.37v16.26h-.01ZM161.73,114.59v18.44h2.28v-18.44h-2.28Z"/>
</svg>